<svg width="36" height="32" viewBox="0 0 36 32" fill="none" xmlns="http://www.w3.org/2000/svg">
<path fill-rule="evenodd" clip-rule="evenodd" d="M4.04121 19.7472H14.7044C14.8658 19.7472 14.9974 19.8786 14.9974 20.0399V22.3342C14.9974 22.4955 14.8658 22.627 14.7044 22.627H4.04121C3.87977 22.627 3.74822 22.4956 3.74822 22.3342V20.0399C3.74822 19.8786 3.87977 19.7472 4.04121 19.7472ZM1.9305 30.5195H34.0675C34.8309 30.5195 35.4568 29.9042 35.4727 29.1473V26.7714L35.3889 26.7734C33.4456 26.7734 31.8731 25.2 31.8731 23.2603C31.8731 21.3205 33.4456 19.7472 35.3889 19.7472H35.4727V5.94756C35.0163 6.16265 34.506 6.28218 33.9699 6.28218C32.0206 6.28218 30.44 4.70289 30.44 2.75509C30.44 2.30502 30.5238 1.87485 30.6772 1.48047H1.9305C1.15917 1.48047 0.527344 2.1118 0.527344 2.8825V10.6337C0.642938 10.6198 0.762539 10.6139 0.882141 10.6139C2.57632 10.6139 3.94952 11.9861 3.94952 13.6788C3.94952 15.3697 2.57625 16.7419 0.882141 16.7419C0.762539 16.7419 0.642938 16.7359 0.527344 16.722V29.1175C0.527344 29.8882 1.15917 30.5195 1.9305 30.5195ZM24.9191 19.9423C27.0836 19.9423 28.8396 21.6969 28.8396 23.8617C28.8396 26.0245 27.0837 27.7791 24.9191 27.7791C22.7526 27.7791 20.9966 26.0245 20.9966 23.8617C20.9966 21.6969 22.7526 19.9423 24.9191 19.9423ZM21.0026 10.9783V8.68398C21.0026 8.52269 21.1342 8.3912 21.2956 8.3912H31.9588C32.1202 8.3912 32.2518 8.52262 32.2518 8.68398V10.9783C32.2518 11.1396 32.1202 11.2711 31.9588 11.2711H21.2956C21.1342 11.271 21.0026 11.1396 21.0026 10.9783ZM14.7044 7.10069H4.04121C3.87977 7.10069 3.74822 6.96927 3.74822 6.80791V4.51361C3.74822 4.35231 3.87977 4.22083 4.04121 4.22083H14.7044C14.8658 4.22083 14.9974 4.35224 14.9974 4.51361V6.80791C14.9974 6.9692 14.8658 7.10069 14.7044 7.10069Z" fill="#F9F7F8"/>
<path fill-rule="evenodd" clip-rule="evenodd" d="M4.04121 7.10068H14.7044C14.8658 7.10068 14.9974 6.96927 14.9974 6.8079V4.51361C14.9974 4.35231 14.8658 4.22083 14.7044 4.22083H4.04121C3.87977 4.22083 3.74821 4.35224 3.74821 4.51361V6.8079C3.74821 6.9692 3.87977 7.10068 4.04121 7.10068Z" fill="#A7E9A6"/>
<path fill-rule="evenodd" clip-rule="evenodd" d="M4.04121 22.6269H14.7044C14.8658 22.6269 14.9974 22.4955 14.9974 22.3341V20.0399C14.9974 19.8786 14.8658 19.7471 14.7044 19.7471H4.04121C3.87977 19.7471 3.74821 19.8785 3.74821 20.0399V22.3341C3.74821 22.4954 3.87977 22.6269 4.04121 22.6269Z" fill="#A7E9A6"/>
<path fill-rule="evenodd" clip-rule="evenodd" d="M20.9966 23.8617C20.9966 26.0245 22.7526 27.7791 24.9191 27.7791C24.1617 27.7791 23.5479 26.0245 23.5479 23.8617C23.5479 21.6968 24.1618 19.9423 24.9191 19.9423C22.7526 19.9423 20.9966 21.6968 20.9966 23.8617Z" fill="#F37C7C"/>
<path fill-rule="evenodd" clip-rule="evenodd" d="M24.9191 27.7791C27.0836 27.7791 28.8396 26.0245 28.8396 23.8617C28.8396 21.6968 27.0837 19.9423 24.9191 19.9423C25.6765 19.9423 26.2903 21.6968 26.2903 23.8617C26.2903 26.0246 25.6765 27.7791 24.9191 27.7791Z" fill="#F37C7C"/>
<path fill-rule="evenodd" clip-rule="evenodd" d="M21.2956 11.271H31.9588C32.1202 11.271 32.2518 11.1396 32.2518 10.9782V8.68389C32.2518 8.5226 32.1202 8.39111 31.9588 8.39111H21.2956C21.1342 8.39111 21.0026 8.52253 21.0026 8.68389V10.9782C21.0026 11.1396 21.1342 11.271 21.2956 11.271Z" fill="#A7E9A6"/>
<path fill-rule="evenodd" clip-rule="evenodd" d="M0.527344 10.6338V16.722C0.642938 16.7359 0.762539 16.7419 0.882141 16.7419C2.57632 16.7419 3.94952 15.3697 3.94952 13.6789C3.94952 11.986 2.57625 10.6139 0.882141 10.6139C0.762539 10.6138 0.642938 10.6198 0.527344 10.6338Z" fill="#F37C7C"/>
<path fill-rule="evenodd" clip-rule="evenodd" d="M23.5479 23.8617C23.5479 26.0245 24.1618 27.7791 24.9191 27.7791C25.6764 27.7791 26.2903 26.0245 26.2903 23.8617C26.2903 21.6968 25.6764 19.9423 24.9191 19.9423C24.1618 19.9423 23.5479 21.6968 23.5479 23.8617Z" fill="#FFD772"/>
<path fill-rule="evenodd" clip-rule="evenodd" d="M29.7065 11.271C29.858 12.5536 29.9357 13.874 29.9357 15.2203C29.9357 18.2156 29.547 21.0775 28.8375 23.7064C28.8395 23.7562 28.8395 23.808 28.8395 23.8617C28.8395 24.7639 28.5345 25.5944 28.0223 26.2575C27.4523 27.7911 26.7667 29.219 25.9833 30.5195H34.0674C34.8308 30.5195 35.4567 29.9042 35.4726 29.1473V26.7714L35.3888 26.7734C33.4455 26.7734 31.873 25.2 31.873 23.2603C31.873 21.3205 33.4455 19.7472 35.3888 19.7472H35.4726V5.94756C35.0162 6.16265 34.5059 6.28218 33.9698 6.28218C32.0205 6.28218 30.4399 4.70289 30.4399 2.75509C30.4399 2.30502 30.5237 1.87485 30.6771 1.48047H26.8444C27.8888 3.54773 28.7039 5.87788 29.2342 8.3912H31.9588C32.1202 8.3912 32.2518 8.52262 32.2518 8.68398V10.9783C32.2518 11.1396 32.1202 11.2711 31.9588 11.2711H29.7065V11.271Z" fill="#E5E4ED"/>
<path fill-rule="evenodd" clip-rule="evenodd" d="M29.2341 8.39118C29.4314 9.32725 29.5909 10.2872 29.7065 11.271H31.9588C32.1202 11.271 32.2517 11.1396 32.2517 10.9782V8.68389C32.2517 8.5226 32.1202 8.39111 31.9588 8.39111H29.2341V8.39118Z" fill="#7FDBAE"/>
<path fill-rule="evenodd" clip-rule="evenodd" d="M30.44 2.75509C30.44 4.70282 32.0206 6.28218 33.9699 6.28218C34.506 6.28218 35.0163 6.16272 35.4727 5.94756V2.85269C35.4567 2.09591 34.8308 1.48047 34.0675 1.48047H30.6773C30.5238 1.87478 30.44 2.30495 30.44 2.75509Z" fill="#FFD772"/>
<path fill-rule="evenodd" clip-rule="evenodd" d="M30.44 2.75509C30.44 4.70282 32.0206 6.28218 33.9699 6.28218C34.506 6.28218 35.0163 6.16272 35.4727 5.94756V2.85269C35.4567 2.09591 34.8308 1.48047 34.0675 1.48047H30.6773C30.5238 1.87478 30.44 2.30495 30.44 2.75509Z" fill="#FFD772"/>
<path fill-rule="evenodd" clip-rule="evenodd" d="M31.873 23.2602C31.873 25.2 33.4456 26.7733 35.3889 26.7733L35.4726 26.7714V19.7471H35.3889C33.4457 19.7471 31.873 21.3205 31.873 23.2602Z" fill="#FFD772"/>
<path fill-rule="evenodd" clip-rule="evenodd" d="M35.3889 19.7471C33.4456 19.7471 31.873 21.3205 31.873 23.2602C31.873 25.2 33.4456 26.7733 35.3889 26.7733L35.4726 26.7714V19.7471H35.3889V19.7471Z" fill="#FFD772"/>
<path fill-rule="evenodd" clip-rule="evenodd" d="M11.9798 4.2209C12.1771 5.15697 12.3365 6.11687 12.4521 7.10068H14.7044C14.8658 7.10068 14.9974 6.96927 14.9974 6.8079V4.51361C14.9974 4.35231 14.8658 4.22083 14.7044 4.22083H11.9798V4.2209Z" fill="#7FDBAE"/>
<path fill-rule="evenodd" clip-rule="evenodd" d="M11.9798 19.7471C12.1771 20.6832 12.3365 21.6451 12.4521 22.6269H14.7044C14.8658 22.6269 14.9974 22.4955 14.9974 22.3341V20.0399C14.9974 19.8786 14.8658 19.7471 14.7044 19.7471H11.9798V19.7471Z" fill="#7FDBAE"/>
<path d="M7.80419 9.38348H6.43295C6.14165 9.38348 5.90561 9.61959 5.90561 9.91083C5.90561 10.2021 6.14165 10.4382 6.43295 10.4382H7.80419C8.09549 10.4382 8.33153 10.2021 8.33153 9.91083C8.33153 9.61959 8.09549 9.38348 7.80419 9.38348Z" fill="black"/>
<path d="M15.1867 9.38348H10.6165C10.3252 9.38348 10.0892 9.61959 10.0892 9.91083C10.0892 10.2021 10.3252 10.4382 10.6165 10.4382H15.1867C15.478 10.4382 15.7141 10.2021 15.7141 9.91083C15.7141 9.61959 15.478 9.38348 15.1867 9.38348Z" fill="black"/>
<path d="M15.1867 11.7255H10.6165C10.3252 11.7255 10.0892 11.9616 10.0892 12.2529C10.0892 12.5441 10.3252 12.7802 10.6165 12.7802H15.1867C15.478 12.7802 15.7141 12.5441 15.7141 12.2529C15.7141 11.9616 15.478 11.7255 15.1867 11.7255Z" fill="black"/>
<path d="M7.80419 11.7255H6.43295C6.14165 11.7255 5.90561 11.9616 5.90561 12.2529C5.90561 12.5441 6.14165 12.7802 6.43295 12.7802H7.80419C8.09549 12.7802 8.33153 12.5441 8.33153 12.2529C8.33153 11.9616 8.09549 11.7255 7.80419 11.7255Z" fill="black"/>
<path d="M15.1867 14.0676H10.6165C10.3252 14.0676 10.0892 14.3037 10.0892 14.595C10.0892 14.8862 10.3252 15.1223 10.6165 15.1223H15.1867C15.478 15.1223 15.7141 14.8862 15.7141 14.595C15.7141 14.3037 15.478 14.0676 15.1867 14.0676Z" fill="black"/>
<path d="M7.80419 14.0676H6.43295C6.14165 14.0676 5.90561 14.3037 5.90561 14.595C5.90561 14.8862 6.14165 15.1223 6.43295 15.1223H7.80419C8.09549 15.1223 8.33153 14.8862 8.33153 14.595C8.33153 14.3037 8.09549 14.0676 7.80419 14.0676Z" fill="black"/>
<path d="M6.43295 17.4644H7.80419C8.09549 17.4644 8.33153 17.2282 8.33153 16.937C8.33153 16.6458 8.09549 16.4097 7.80419 16.4097H6.43295C6.14165 16.4097 5.90561 16.6458 5.90561 16.937C5.90561 17.2282 6.14172 17.4644 6.43295 17.4644Z" fill="black"/>
<path d="M15.7141 16.937C15.7141 16.6458 15.478 16.4097 15.1867 16.4097H10.6165C10.3252 16.4097 10.0892 16.6458 10.0892 16.937C10.0892 17.2282 10.3252 17.4644 10.6165 17.4644H15.1867C15.478 17.4644 15.7141 17.2282 15.7141 16.937Z" fill="black"/>
<path d="M5.11748 24.9097H3.74821C3.45691 24.9097 3.22087 25.1458 3.22087 25.4371C3.22087 25.7283 3.45691 25.9644 3.74821 25.9644H5.11755C5.40885 25.9644 5.64489 25.7283 5.64489 25.4371C5.64489 25.1458 5.40878 24.9097 5.11748 24.9097Z" fill="black"/>
<path d="M12.502 24.9097H7.93182C7.64052 24.9097 7.40448 25.1458 7.40448 25.4371C7.40448 25.7283 7.64052 25.9644 7.93182 25.9644H12.502C12.7933 25.9644 13.0293 25.7283 13.0293 25.4371C13.0293 25.1458 12.7932 24.9097 12.502 24.9097Z" fill="black"/>
<path d="M12.502 27.2517H7.93182C7.64052 27.2517 7.40448 27.4878 7.40448 27.7791C7.40448 28.0703 7.64052 28.3064 7.93182 28.3064H12.502C12.7933 28.3064 13.0293 28.0703 13.0293 27.7791C13.0293 27.4878 12.7932 27.2517 12.502 27.2517Z" fill="black"/>
<path d="M5.11748 27.2517H3.74821C3.45691 27.2517 3.22087 27.4878 3.22087 27.7791C3.22087 28.0703 3.45691 28.3064 3.74821 28.3064H5.11755C5.40885 28.3064 5.64489 28.0703 5.64489 27.7791C5.64489 27.4878 5.40878 27.2517 5.11748 27.2517Z" fill="black"/>
<path d="M32.2518 13.5538H26.378C26.0867 13.5538 25.8507 13.7899 25.8507 14.0811C25.8507 14.3724 26.0867 14.6085 26.378 14.6085H32.2518C32.5431 14.6085 32.7791 14.3724 32.7791 14.0811C32.7791 13.7899 32.5431 13.5538 32.2518 13.5538Z" fill="black"/>
<path d="M21.0026 14.6085H22.7646C23.0559 14.6085 23.2919 14.3724 23.2919 14.0811C23.2919 13.7899 23.0559 13.5538 22.7646 13.5538H21.0026C20.7113 13.5538 20.4753 13.7899 20.4753 14.0811C20.4753 14.3724 20.7114 14.6085 21.0026 14.6085Z" fill="black"/>
<path d="M21.0026 16.9505H22.7646C23.0559 16.9505 23.2919 16.7144 23.2919 16.4232C23.2919 16.1319 23.0559 15.8958 22.7646 15.8958H21.0026C20.7113 15.8958 20.4753 16.1319 20.4753 16.4232C20.4753 16.7144 20.7114 16.9505 21.0026 16.9505Z" fill="black"/>
<path d="M32.2518 15.8958H26.378C26.0867 15.8958 25.8507 16.1319 25.8507 16.4232C25.8507 16.7144 26.0867 16.9505 26.378 16.9505H32.2518C32.5431 16.9505 32.7791 16.7144 32.7791 16.4232C32.7791 16.1319 32.5431 15.8958 32.2518 15.8958Z" fill="black"/>
<path d="M32.7791 8.68396C32.7791 8.23178 32.4112 7.86383 31.9588 7.86383H21.2956C20.8432 7.86383 20.4753 8.23171 20.4753 8.68396V10.9783C20.4753 11.4305 20.8432 11.7984 21.2956 11.7984H31.9588C32.4112 11.7984 32.7791 11.4305 32.7791 10.9783V8.68396ZM31.7244 10.7437H21.53V8.91852H31.7244V10.7437Z" fill="black"/>
<path d="M17.3763 1.48047C17.3763 1.18923 17.1403 0.953125 16.849 0.953125H1.9305C0.865969 0.953125 0 1.81867 0 2.8825V29.1175C0 30.1813 0.865969 31.0469 1.9305 31.0469H16.849C17.1403 31.0469 17.3763 30.8108 17.3763 30.5195C17.3763 30.2283 17.1403 29.9922 16.849 29.9922H1.9305C1.44759 29.9922 1.05469 29.5998 1.05469 29.1175V17.2649C2.95699 17.1746 4.47687 15.6008 4.47687 13.6788C4.47687 11.7559 2.95699 10.1811 1.05469 10.0909V2.8825C1.05469 2.40023 1.44759 2.00781 1.9305 2.00781H16.849C17.1402 2.00781 17.3763 1.7717 17.3763 1.48047ZM3.42218 13.6788C3.42218 15.0191 2.37502 16.119 1.05469 16.208V11.1477C2.37502 11.2367 3.42218 12.3376 3.42218 13.6788Z" fill="black"/>
<path d="M34.0675 0.953125H19.2527C18.9614 0.953125 18.7253 1.18923 18.7253 1.48047C18.7253 1.7717 18.9614 2.00781 19.2527 2.00781H29.9811C29.9356 2.25229 29.9127 2.50197 29.9127 2.75509C29.9127 4.99068 31.7327 6.80952 33.9699 6.80952C34.3031 6.80952 34.6289 6.76874 34.9453 6.69062V19.2446C32.9239 19.4662 31.3457 21.1822 31.3457 23.2603C31.3457 25.3384 32.9239 27.0544 34.9453 27.2759V29.1175C34.9453 29.5998 34.5515 29.9922 34.0675 29.9922H19.2826C18.9913 29.9922 18.7552 30.2283 18.7552 30.5195C18.7552 30.8108 18.9913 31.0469 19.2826 31.0469H34.0675C35.1331 31.0469 36 30.1813 36 29.1175V2.8825C36 1.81867 35.1331 0.953125 34.0675 0.953125ZM33.9699 5.75484C32.3143 5.75484 30.9674 4.4092 30.9674 2.75509C30.9674 2.49972 30.9994 2.24969 31.0614 2.00781H34.0675C34.5515 2.00781 34.9453 2.40023 34.9453 2.8825V5.59333C34.6336 5.70055 34.3068 5.75484 33.9699 5.75484ZM32.4004 23.2603C32.4004 21.7645 33.5071 20.5223 34.9453 20.3076V26.213C33.5071 25.9982 32.4004 24.7561 32.4004 23.2603Z" fill="black"/>
<path d="M24.9191 28.3065C27.3717 28.3065 29.3669 26.3125 29.3669 23.8617C29.3669 21.5883 27.6512 19.709 25.4464 19.4473V18.7434C25.4464 18.4522 25.2104 18.2161 24.9191 18.2161C24.6278 18.2161 24.3918 18.4522 24.3918 18.7434V19.4473C22.1859 19.7089 20.4693 21.5882 20.4693 23.8617C20.4693 26.3125 22.4655 28.3065 24.9191 28.3065ZM28.3122 23.8617C28.3122 25.2256 27.5015 26.4031 26.3366 26.9406C26.6621 26.0908 26.8177 24.9553 26.8177 23.8617C26.8177 22.7675 26.6621 21.6313 26.3364 20.7809C27.5014 21.3187 28.3122 22.497 28.3122 23.8617ZM24.9191 20.4714C25.1593 20.5589 25.763 21.6992 25.763 23.8617C25.763 26.0231 25.1593 27.1628 24.9191 27.2501C24.6789 27.1628 24.0751 26.0231 24.0751 23.8617C24.0751 21.6991 24.6789 20.5587 24.9191 20.4714ZM23.5019 20.7805C23.1761 21.6309 23.0205 22.7673 23.0205 23.8617C23.0205 24.9554 23.176 26.0911 23.5017 26.9411C22.3357 26.4037 21.5241 25.226 21.5241 23.8617C21.524 22.4966 22.3357 21.3181 23.5019 20.7805Z" fill="black"/>
<path d="M15.5247 6.8079V4.51361C15.5247 4.06143 15.1568 3.69348 14.7044 3.69348H4.04121C3.58882 3.69348 3.22087 4.06136 3.22087 4.51361V6.8079C3.22087 7.26008 3.58882 7.62803 4.04121 7.62803H14.7044C15.1568 7.62803 15.5247 7.26008 15.5247 6.8079ZM14.47 6.57334H4.27556V4.74824H14.47V6.57334Z" fill="black"/>
<path d="M15.5247 22.3341V20.0399C15.5247 19.5876 15.1568 19.2197 14.7044 19.2197H4.04121C3.58882 19.2197 3.22087 19.5876 3.22087 20.0399V22.3341C3.22087 22.7863 3.58882 23.1543 4.04121 23.1543H14.7044C15.1568 23.1543 15.5247 22.7864 15.5247 22.3341ZM14.47 22.0996H4.27556V20.2744H14.47V22.0996Z" fill="black"/>
</svg>
