<svg width="36" height="36" viewBox="0 0 36 36" fill="none" xmlns="http://www.w3.org/2000/svg">
<g clip-path="url(#clip0)">
<path fill-rule="evenodd" clip-rule="evenodd" d="M6.25782 3.04869L11.5215 5.73196L16.6795 3.04869C16.7154 2.38895 16.6736 1.75916 16.5898 1.18316C16.5241 0.722757 16.54 0.52546 15.9221 0.527429L11.4676 0.531436L7.01515 0.527358C6.39732 0.52539 6.41328 0.722686 6.3455 1.18309C6.26175 1.75909 6.22189 2.38895 6.25782 3.04869Z" fill="#FFD772"/>
<path fill-rule="evenodd" clip-rule="evenodd" d="M11.4677 35.4726H18.1145C18.9377 35.4726 19.0014 35.0222 19.1768 34.1791C19.2605 33.7705 19.3402 33.36 19.4159 32.9493L11.3281 30.3515L3.52129 32.9493C3.59504 33.3599 3.67478 33.7705 3.76042 34.1791C3.93578 35.0222 3.99758 35.4726 4.8227 35.4726H11.4677Z" fill="#FFD772"/>
<path fill-rule="evenodd" clip-rule="evenodd" d="M3.52133 32.9494H19.416C19.5455 32.2299 19.6591 31.5083 19.7568 30.7868C19.2127 30.0533 18.8918 29.1445 18.8918 28.1659V25.0826V22.9081C18.8918 22.7168 19.0472 22.5593 19.2386 22.5593H20.1215C19.966 19.4261 19.4518 16.4664 18.5609 13.8912C7.89006 13.8912 15.6869 28.4011 2.92136 28.4011C3.047 29.9159 3.24824 31.4386 3.52133 32.9494Z" fill="#E29D7B"/>
<path fill-rule="evenodd" clip-rule="evenodd" d="M7.49753 8.27451C3.68477 12.5936 2.25377 20.3688 2.92145 28.401C15.687 28.401 7.89015 13.8911 18.561 13.8911C17.7996 11.6927 16.7632 9.77526 15.4378 8.27444C15.2963 8.113 15.2186 7.96949 15.1867 7.83393C15.111 7.519 15.2843 7.24795 15.4956 6.90313C16.2889 5.60559 16.6157 4.27422 16.6795 3.04846H6.25785C6.32162 4.27422 6.64647 5.60566 7.4417 6.90313C7.65299 7.24795 7.82638 7.519 7.75065 7.83393C7.71873 7.96956 7.64104 8.11307 7.49753 8.27451Z" fill="#E29D7B"/>
<path fill-rule="evenodd" clip-rule="evenodd" d="M15.9222 0.527358L12.2311 0.531366C12.6975 0.563288 12.6895 0.762554 12.7513 1.18309C12.835 1.75909 12.8748 2.38895 12.841 3.04862H16.6796C16.7155 2.38888 16.6736 1.75909 16.5899 1.18309C16.5242 0.722686 16.54 0.52539 15.9222 0.527358Z" fill="#FBBA58"/>
<path fill-rule="evenodd" clip-rule="evenodd" d="M16.6796 3.04865H12.8409C12.7752 4.2744 12.4503 5.60584 11.655 6.90332C11.4458 7.24813 11.2704 7.51918 11.3461 7.83411C11.378 7.96968 11.4577 8.11318 11.5992 8.27462C13.0841 9.95678 14.2082 12.1632 14.9874 14.7064C15.8744 14.1922 17.0264 13.8912 18.561 13.8912C17.7996 11.6928 16.7632 9.77537 15.4379 8.27455C15.2963 8.11311 15.2186 7.96961 15.1867 7.83404C15.111 7.51911 15.2844 7.24806 15.4957 6.90325C16.2889 5.60577 16.6158 4.2744 16.6796 3.04865Z" fill="#CE8B6B"/>
<path fill-rule="evenodd" clip-rule="evenodd" d="M18.561 13.8912C17.0264 13.8912 15.8744 14.1922 14.9874 14.7064C16.2092 18.6907 16.5839 23.4981 16.1753 28.4011C16.0497 29.9159 15.8505 31.4386 15.5754 32.9494H19.416C19.5455 32.2299 19.6591 31.5084 19.7568 30.7869C19.2127 30.0534 18.8918 29.1445 18.8918 28.1659V25.0826V22.9081C18.8918 22.7168 19.0473 22.5593 19.2386 22.5593H20.1215C19.9661 19.4261 19.4519 16.4663 18.561 13.8912Z" fill="#CE8B6B"/>
<path fill-rule="evenodd" clip-rule="evenodd" d="M19.416 32.9493H15.5754C15.5016 33.3599 15.4219 33.7705 15.3362 34.1791C15.1608 35.0222 15.099 35.4726 14.2759 35.4726H18.1145C18.9377 35.4726 19.0014 35.0222 19.1768 34.1791C19.2605 33.7705 19.3403 33.36 19.416 32.9493Z" fill="#FBBA58"/>
<path fill-rule="evenodd" clip-rule="evenodd" d="M22.9278 35.4707H29.206C29.4352 35.4707 29.6225 35.2833 29.6225 35.0541V32.5188L26.4476 30.3515C26.1705 30.3515 22.5112 32.5188 22.5112 32.5188V35.0541C22.5112 35.2833 22.6986 35.4707 22.9278 35.4707Z" fill="#E29D7B"/>
<path fill-rule="evenodd" clip-rule="evenodd" d="M18.8918 25.0826V28.1659C18.8918 29.1445 19.2127 30.0534 19.7568 30.7869C20.4105 31.6738 21.3871 32.3096 22.5112 32.5189C22.7723 32.5687 23.0414 32.5926 23.3184 32.5926H28.8153C29.0904 32.5926 29.3614 32.5687 29.6225 32.5189C31.6753 32.1362 33.2419 30.3265 33.2419 28.1659V22.9081C33.2419 22.7168 33.0845 22.5593 32.8931 22.5593H20.1215H19.2386C19.0473 22.5593 18.8918 22.7167 18.8918 22.9081V25.0826Z" fill="#FFD772"/>
<path fill-rule="evenodd" clip-rule="evenodd" d="M28.8153 32.5926H26.629V35.1278C26.629 35.2694 26.5572 35.3949 26.4476 35.4707H29.206C29.4353 35.4707 29.6226 35.2833 29.6226 35.0541V32.5188C29.3614 32.5687 29.0904 32.5926 28.8153 32.5926Z" fill="#CE8B6B"/>
<path fill-rule="evenodd" clip-rule="evenodd" d="M30.0371 22.908V25.0825V28.1659C30.0371 30.3264 28.4705 32.1361 26.4177 32.5188C26.1546 32.5687 25.8855 32.5926 25.6105 32.5926H26.6289H28.8153C29.0904 32.5926 29.3614 32.5687 29.6225 32.5188C31.6753 32.1361 33.2419 30.3264 33.2419 28.1659V22.908C33.2419 22.7167 33.0845 22.5592 32.8931 22.5592H29.6882C29.8796 22.5593 30.0371 22.7167 30.0371 22.908Z" fill="#FBBA58"/>
<path fill-rule="evenodd" clip-rule="evenodd" d="M32.8931 22.5593H20.1215H19.2386C19.0473 22.5593 18.8918 22.7167 18.8918 22.9081V25.0826H33.2419V22.9081C33.2419 22.7167 33.0845 22.5593 32.8931 22.5593Z" fill="#E29D7B"/>
<path fill-rule="evenodd" clip-rule="evenodd" d="M30.0371 22.908V25.0825H33.2419V22.908C33.2419 22.7167 33.0845 22.5592 32.8931 22.5592H29.6882C29.8796 22.5593 30.0371 22.7167 30.0371 22.908Z" fill="#CE8B6B"/>
<path d="M32.8931 22.0319H27.4959C27.2046 22.0319 26.9685 22.268 26.9685 22.5593C26.9685 22.8505 27.2046 23.0866 27.4959 23.0866H32.7145V24.5552H19.4192V23.0866H24.859C25.1503 23.0866 25.3864 22.8505 25.3864 22.5593C25.3864 22.268 25.1503 22.0319 24.859 22.0319H20.6196C20.244 16.0007 18.5521 11.0048 15.8336 7.92612C15.6413 7.70766 15.6297 7.69458 15.9276 7.2078L15.9455 7.17855C17.3139 4.9417 17.335 2.64227 17.1119 1.10848L17.1004 1.02558C17.0296 0.506531 16.8807 0 15.9303 0C15.9275 0 15.9246 0 15.9217 0L11.4681 0.00400781L7.01694 0C7.01399 0 7.01118 0 7.00822 0C6.05914 0 5.90854 0.504773 5.83583 1.02199L5.8236 1.10777C5.50557 3.31291 5.90959 5.41223 6.9917 7.17834L7.0097 7.20766C7.30712 7.69373 7.29559 7.70681 7.10223 7.92541C5.74309 9.4642 4.64017 11.4653 3.82384 13.8735C3.74368 14.11 3.82961 14.3805 4.04448 14.5077C4.34429 14.6853 4.71266 14.5372 4.81813 14.2256C5.58981 11.9446 6.62425 10.0598 7.89254 8.6239C8.61381 7.80827 8.20663 7.14291 7.90928 6.65712L7.89128 6.6278C7.31591 5.68877 6.96287 4.66741 6.83047 3.57595H16.1009C15.9829 4.54064 15.6784 5.59399 15.0457 6.62822L15.028 6.65719C14.7309 7.1427 14.324 7.80757 15.0426 8.62362C16.1549 9.88327 17.0848 11.4953 17.8118 13.3888C15.7319 13.5294 14.1944 14.2746 13.127 15.6559C12.0886 16.9996 11.6104 18.7908 11.1478 20.5231C10.165 24.2037 9.23439 27.6849 3.40436 27.8658C3.11193 23.8702 3.35696 20.0113 4.14278 16.6192C4.20852 16.3354 4.03175 16.0522 3.74804 15.9864C3.46454 15.9209 3.18111 16.0974 3.1153 16.3811C1.89299 21.6573 1.93883 28.0162 3.24425 34.2865L3.26303 34.3768C3.42784 35.1749 3.59835 36 4.82277 36H18.1146C19.3389 36 19.5101 35.1721 19.6755 34.3716L19.6932 34.2864C19.8531 33.5169 19.9947 32.7323 20.119 31.9438C20.6552 32.3987 21.2889 32.7416 21.9839 32.9367V35.0542C21.9839 35.5746 22.4074 35.998 22.9279 35.998H29.206C29.7265 35.998 30.1499 35.5746 30.1499 35.0542V32.9359C32.2351 32.3516 33.7694 30.4352 33.7694 28.1659V22.9081C33.7692 22.425 33.3762 22.0319 32.8931 22.0319ZM6.77169 2.52127C6.77471 2.1093 6.8053 1.68905 6.86725 1.25986C6.87259 1.22238 6.8844 1.06798 6.90613 1.05743C6.93116 1.04527 6.98727 1.05448 7.01476 1.05469L11.4682 1.0587L15.9238 1.05469C15.9699 1.0549 16.0085 1.05588 16.0378 1.05785C16.0389 1.05792 16.0398 1.05877 16.04 1.05989C16.0454 1.0947 16.068 1.25902 16.068 1.25902C16.1225 1.63385 16.1606 2.05995 16.1623 2.52134H6.77169V2.52127ZM12.1668 20.7952C13.0552 17.4682 13.8263 14.5827 18.181 14.4257C18.9124 16.6546 19.3838 19.222 19.5633 22.0319H19.2387C18.7567 22.0319 18.3645 22.425 18.3645 22.908V28.1659C18.3645 29.1855 18.6743 30.1339 19.2045 30.9225C19.1346 31.4236 19.0565 31.9242 18.9715 32.422H3.96432C3.76267 31.2503 3.60482 30.0797 3.49302 28.9181C10.0579 28.6897 11.1769 24.5022 12.1668 20.7952ZM18.6427 34.158C18.4799 34.9453 18.473 34.9453 18.1146 34.9453H4.82277C4.46418 34.9453 4.45736 34.9453 4.29578 34.1634L4.27672 34.0716C4.23545 33.8734 4.19579 33.675 4.15712 33.4767H18.7787C18.7401 33.6756 18.7015 33.8746 18.6605 34.0717L18.6427 34.158ZM29.0951 34.9433H23.0386V33.1112C23.1313 33.1164 23.2245 33.1199 23.3184 33.1199H28.8153C28.9092 33.1199 29.0024 33.1168 29.0951 33.1116V34.9433H29.0951ZM32.7145 28.1659C32.7145 30.3161 30.9653 32.0653 28.8153 32.0653H23.3184C21.1684 32.0653 19.4192 30.3161 19.4192 28.1659V25.6099H32.7145V28.1659Z" fill="black"/>
</g>
<defs>
<clipPath id="clip0">
<rect width="36" height="36" fill="white"/>
</clipPath>
</defs>
</svg>
