<svg width="36" height="36" viewBox="0 0 36 36" fill="none" xmlns="http://www.w3.org/2000/svg">
<g clip-path="url(#clip0)">
<path fill-rule="evenodd" clip-rule="evenodd" d="M3.85783 18.4618L12.0938 20.1846L19.2148 18.4618C19.434 18.0689 19.5536 17.6342 19.5536 17.1597C19.5536 15.9713 18.9676 15.0222 17.999 14.2625C17.3732 13.7699 16.5859 13.3572 15.695 13.0122C14.4572 12.5317 13.1517 12.0532 11.9738 10.7631C11.649 10.4082 11.4217 10.4082 11.0969 10.7631C9.91892 12.0532 8.61342 12.5317 7.37571 13.0122C5.1075 13.8916 3.51703 15.2016 3.51703 17.1597C3.51703 17.6342 3.63663 18.0689 3.85783 18.4618Z" fill="#FFEEE6"/>
<path fill-rule="evenodd" clip-rule="evenodd" d="M19.2148 18.4618L25.24 20.1846L32.1422 18.4618C32.3614 18.0689 32.481 17.6363 32.481 17.1597C32.481 15.2016 30.8905 13.8916 28.6243 13.0122C27.3866 12.5317 26.079 12.0532 24.9031 10.7631C24.5763 10.4082 24.3491 10.4082 24.0242 10.7631C22.8462 12.0532 21.5407 12.5317 20.303 13.0122C19.4121 13.3572 17.7857 15.0314 17.9989 14.2625C17.4109 16.383 18.1273 18.0002 19.2148 18.4618Z" fill="#FFEEE6"/>
<path fill-rule="evenodd" clip-rule="evenodd" d="M1.80688 21.9072L17.7879 24.3478L34.193 21.9072V19.0459C34.193 18.7248 33.9299 18.4617 33.607 18.4617H32.1421H19.2148H3.85783H2.3909C2.06999 18.4617 1.80688 18.7248 1.80688 19.0459V21.9072Z" fill="#FFD772"/>
<path fill-rule="evenodd" clip-rule="evenodd" d="M2.3909 35.1211H33.6071C33.93 35.1211 34.1931 34.858 34.1931 34.5349V31.6756L18 29.233L1.80688 31.6756V34.5349C1.80688 34.858 2.06999 35.1211 2.3909 35.1211Z" fill="#FFD772"/>
<path fill-rule="evenodd" clip-rule="evenodd" d="M1.80689 31.6756H34.193H34.9006C35.2155 31.6756 35.4726 31.4184 35.4726 31.1033V25.2172V22.4795C35.4726 22.1644 35.2155 21.9072 34.9006 21.9072H34.193H1.80689H1.09934C0.784406 21.9072 0.527344 22.1644 0.527344 22.4795V24.3478V29.233V31.1033C0.527344 31.4184 0.784477 31.6756 1.09934 31.6756H1.80689Z" fill="#E29D7B"/>
<path fill-rule="evenodd" clip-rule="evenodd" d="M29.3239 18.4617C29.6448 18.4617 29.9079 18.7248 29.9079 19.0459V21.9072H30.6154H34.1931V19.0459C34.1931 18.7248 33.93 18.4617 33.6071 18.4617H32.1421H30.3942H29.3239Z" fill="#FBBA58"/>
<path fill-rule="evenodd" clip-rule="evenodd" d="M31.881 21.9072C32.196 21.9072 32.453 22.1644 32.453 22.4795V25.2172V28.3637V31.1034C32.453 31.4185 32.1959 31.6757 31.881 31.6757H34.1931H34.9006C35.2155 31.6757 35.4726 31.4185 35.4726 31.1034V25.2173V22.4796C35.4726 22.1645 35.2155 21.9073 34.9006 21.9073H34.1931H31.881V21.9072Z" fill="#CE8B6B"/>
<path fill-rule="evenodd" clip-rule="evenodd" d="M29.9078 31.6756V34.5349C29.9078 34.8579 29.6447 35.1211 29.3238 35.1211H33.607C33.9299 35.1211 34.193 34.8579 34.193 34.5349V31.6756H30.6154H29.9078Z" fill="#FBBA58"/>
<path fill-rule="evenodd" clip-rule="evenodd" d="M15.6949 13.0122C14.4572 12.5317 13.1517 12.0532 11.9738 10.7631C11.649 10.4082 11.4217 10.4082 11.0969 10.7631C10.7262 11.1679 10.3454 11.4929 9.95477 11.7641C11.1227 13.0222 12.4143 13.4948 13.6401 13.9714C14.531 14.3163 15.3162 14.7291 15.9441 15.2216C16.9108 15.9813 17.4968 16.9304 17.4968 18.1188C17.4968 18.2365 17.4908 18.3502 17.4769 18.4618H19.2148C19.4341 18.069 19.5537 17.6343 19.5537 17.1598C19.5537 15.9713 18.9677 15.0223 17.9991 14.2625C17.3732 13.77 16.5859 13.3572 15.6949 13.0122Z" fill="#FFDFCF"/>
<path fill-rule="evenodd" clip-rule="evenodd" d="M22.7466 11.8577C22.7685 11.8796 22.7944 11.9055 22.8183 11.9314C23.7073 12.9045 24.6699 13.4169 25.6186 13.8157C25.9276 13.9433 26.2365 14.061 26.5395 14.1806C28.8076 15.06 30.3981 16.37 30.3981 18.3281C30.3981 18.372 30.3962 18.4178 30.3941 18.4617H32.1421C32.3613 18.0689 32.4809 17.6362 32.4809 17.1596C32.4809 15.2016 30.8904 13.8915 28.6242 13.0122C27.3865 12.5317 26.079 12.0531 24.9031 10.763C24.5762 10.4081 24.349 10.4081 24.0241 10.763C23.6116 11.2156 23.1831 11.5685 22.7466 11.8577Z" fill="#FFDFCF"/>
<path d="M13.4239 26.7904C13.4239 26.4992 13.1878 26.2631 12.8966 26.2631H6.15192C5.86068 26.2631 5.62457 26.4992 5.62457 26.7904C5.62457 27.0816 5.86068 27.3177 6.15192 27.3177H12.8966C13.1879 27.3177 13.4239 27.0816 13.4239 26.7904Z" fill="black"/>
<path d="M34.9007 21.3799H34.7205V19.0459C34.7205 18.433 34.221 17.9344 33.6072 17.9344H32.9135C32.9761 17.6835 33.0083 17.4249 33.0083 17.1597C33.0083 15.1611 31.5975 13.6002 28.8152 12.5207C28.8152 12.5207 26.4698 11.8302 25.2911 10.4058C25.0508 10.1154 24.6973 9.91107 24.3045 9.98413C23.8964 10.06 23.6528 10.4055 23.3738 10.6769C22.7493 11.2846 22.0032 11.7309 21.2085 12.0792C20.8477 12.2374 20.4798 12.3781 20.1126 12.5205C19.2923 12.8381 18.5838 13.2031 17.9995 13.608C17.4161 13.204 16.7119 12.8409 15.8858 12.5207C15.317 12.3003 14.7459 12.0821 14.2036 11.8009C13.546 11.4598 12.9435 11.0236 12.4343 10.4841C12.2194 10.2564 11.995 10.0316 11.671 9.98019C11.3366 9.92718 11.0191 10.0701 10.7999 10.3117C10.0546 11.133 9.41323 11.4992 9.0997 11.6753C8.48967 12.0179 7.83584 12.2682 7.18502 12.5206C4.40114 13.5998 2.98962 15.1606 2.98962 17.1597C2.98962 17.4252 3.02203 17.6838 3.08475 17.9344H2.39084C1.77806 17.9344 1.27948 18.433 1.27948 19.0459V21.3799H1.09927C0.493172 21.3799 0 21.8732 0 22.4796V31.1034C0 31.7097 0.493172 32.203 1.09934 32.203H1.27955V34.535C1.27955 35.149 1.77806 35.6485 2.39091 35.6485H33.6071C34.221 35.6485 34.7204 35.149 34.7204 34.535V32.203H34.9006C35.5068 32.203 35.9999 31.7097 35.9999 31.1034V22.4796C36 21.8732 35.5068 21.3799 34.9007 21.3799ZM20.4939 13.5038C20.9903 13.3113 21.4878 13.1202 21.9689 12.8915C22.5581 12.6114 23.1199 12.2743 23.6268 11.8624C23.7862 11.7329 24.4392 11.0839 24.4523 11.0781C24.4604 11.0704 24.4696 11.0723 24.4786 11.0818C24.4905 11.0937 25.2127 11.8085 25.5731 12.074C26.2999 12.6096 27.1178 12.9876 27.9541 13.3173C28.1137 13.3802 28.2737 13.4419 28.4336 13.5039C30.7694 14.4102 31.9537 15.6402 31.9537 17.1597C31.9537 17.4332 31.9058 17.6888 31.8093 17.9344H19.9861C20.0487 17.6835 20.081 17.4249 20.081 17.1597C20.081 16.0795 19.668 15.1274 18.8498 14.31C19.3159 14.017 19.866 13.747 20.4939 13.5038ZM7.56654 13.5038C8.65568 13.0814 9.73188 12.636 10.6529 11.8999C10.9367 11.673 11.2032 11.4246 11.45 11.1581C11.4692 11.1373 11.551 11.0787 11.6203 11.1576C11.6833 11.2294 11.7514 11.2965 11.8189 11.364C11.9486 11.4937 12.0833 11.6185 12.2225 11.7381C12.7167 12.1624 13.268 12.5137 13.8502 12.8043C14.3866 13.072 14.946 13.2874 15.5043 13.5038C17.8413 14.4099 19.0263 15.6398 19.0263 17.1596C19.0263 17.429 18.9772 17.6883 18.8813 17.9343H4.19013C4.09366 17.689 4.04437 17.4296 4.04437 17.1596C4.04437 15.6399 5.22935 14.4099 7.56654 13.5038ZM34.9453 24.6899H30.6334C30.3422 24.6899 30.1061 24.926 30.1061 25.2173C30.1061 25.5085 30.3422 25.7446 30.6334 25.7446H34.9453V27.8387C34.9305 27.8374 34.9157 27.8364 34.9007 27.8364H23.5997C23.3085 27.8364 23.0723 28.0725 23.0723 28.3637C23.0723 28.655 23.3085 28.8911 23.5997 28.8911H34.9007C34.9157 28.8911 34.9305 28.8901 34.9453 28.8888V31.1035C34.9453 31.1274 34.9244 31.1484 34.9007 31.1484H19.2926C19.0013 31.1484 18.7652 31.3845 18.7652 31.6757C18.7652 31.967 19.0013 32.2031 19.2926 32.2031H33.6657V34.5351C33.6657 34.567 33.6388 34.5939 33.6071 34.5939H2.39091C2.36074 34.5939 2.33423 34.5664 2.33423 34.5351V32.2031H16.8589C17.1501 32.2031 17.3862 31.967 17.3862 31.6757C17.3862 31.3845 17.1501 31.1484 16.8589 31.1484H1.09934C1.07557 31.1484 1.05469 31.1274 1.05469 31.1035V29.7604H8.15498C8.44622 29.7604 8.68233 29.5243 8.68233 29.2331C8.68233 28.9419 8.44622 28.7057 8.15498 28.7057H1.05469V24.8752H15.9142C16.2054 24.8752 16.4415 24.6391 16.4415 24.3478C16.4415 24.0566 16.2054 23.8205 15.9142 23.8205H1.05469V22.4795C1.05469 22.4556 1.07557 22.4346 1.09934 22.4346H16.8589C17.1501 22.4346 17.3862 22.1985 17.3862 21.9072C17.3862 21.616 17.1501 21.3799 16.8589 21.3799H2.33423V19.0459C2.33423 19.0162 2.36123 18.9891 2.39091 18.9891H33.6071C33.6383 18.9891 33.6657 19.0156 33.6657 19.0459V21.3799H19.2926C19.0013 21.3799 18.7652 21.616 18.7652 21.9072C18.7652 22.1985 19.0013 22.4346 19.2926 22.4346H34.9007C34.9232 22.4346 34.9453 22.4568 34.9453 22.4795V24.6899Z" fill="black"/>
<path d="M20.0021 28.7056H12.3724C12.0811 28.7056 11.845 28.9417 11.845 29.233C11.845 29.5242 12.0811 29.7603 12.3724 29.7603H20.0021C20.2933 29.7603 20.5294 29.5242 20.5294 29.233C20.5294 28.9417 20.2933 28.7056 20.0021 28.7056Z" fill="black"/>
<path d="M26.414 24.6899H20.6559C20.3646 24.6899 20.1285 24.926 20.1285 25.2172C20.1285 25.5085 20.3646 25.7446 20.6559 25.7446H26.414C26.7052 25.7446 26.9413 25.5085 26.9413 25.2172C26.9413 24.926 26.7052 24.6899 26.414 24.6899Z" fill="black"/>
<path d="M17.6763 8.55494C17.6969 8.83204 17.9283 9.04319 18.2017 9.04319C18.2148 9.04319 18.2281 9.0427 18.2414 9.04171C18.5318 9.02006 18.7497 8.76707 18.7281 8.47668C18.7226 8.40278 18.7135 8.32347 18.703 8.23157C18.606 7.38353 18.4436 5.96413 20.4583 5.29124C21.7303 4.86578 22.5667 3.94258 22.877 2.62141C23.1024 1.66164 22.9634 0.824993 22.9574 0.789837C22.9081 0.502821 22.6358 0.309743 22.3485 0.359243C22.0614 0.408462 21.8686 0.681134 21.9179 0.968149C21.919 0.974618 22.0245 1.63858 21.8503 2.38024C21.6247 3.34035 21.0439 3.98322 20.124 4.29091C17.2985 5.23457 17.5576 7.49899 17.6552 8.35145C17.6641 8.42894 17.6721 8.49742 17.6763 8.55494Z" fill="black"/>
<path d="M22.6414 5.75253C20.7647 6.37908 20.9438 7.93025 21.0027 8.43995C21.0077 8.48396 21.0124 8.52284 21.0148 8.55547C21.0357 8.83243 21.2668 9.04323 21.5401 9.04323C21.5534 9.04323 21.5669 9.04274 21.5803 9.04175C21.8708 9.01981 22.0884 8.76669 22.0666 8.4763C22.0632 8.43179 22.0573 8.37891 22.0504 8.31901C21.9767 7.68106 21.992 7.0813 22.976 6.7528C24.5948 6.21026 24.7683 4.57578 24.6338 3.78729C24.585 3.50126 24.3145 3.31015 24.0282 3.35705C23.742 3.4043 23.5479 3.67543 23.5936 3.96195C23.6164 4.10482 23.7837 5.36968 22.6414 5.75253Z" fill="black"/>
<path d="M13.7182 8.55551C13.7391 8.8324 13.9702 9.0432 14.2435 9.0432C14.2568 9.0432 14.2702 9.04271 14.2837 9.04165C14.5741 9.01971 14.7918 8.76652 14.7699 8.47613C14.7666 8.43204 14.7607 8.37959 14.7539 8.32025C14.6805 7.68181 14.6961 7.08155 15.6812 6.7527C17.3004 6.21003 17.4723 4.57527 17.3368 3.78664C17.2878 3.50068 17.0169 3.30957 16.7308 3.3571C16.4446 3.4047 16.2508 3.67597 16.2969 3.96242C16.3198 4.10537 16.4885 5.3698 15.3466 5.75251C13.4691 6.37934 13.6474 7.93086 13.706 8.44069C13.7111 8.48443 13.7157 8.52303 13.7182 8.55551Z" fill="black"/>
<path d="M14.0774 15.2197C14.1015 15.2229 14.1254 15.2245 14.149 15.2245C14.4087 15.2245 14.635 15.0326 14.6709 14.768C14.7101 14.4794 14.5079 14.2137 14.2192 14.1746C13.8384 14.123 13.5537 13.9616 13.3729 13.6952C13.2093 13.4542 12.8815 13.3915 12.6404 13.5549C12.3995 13.7185 12.3367 14.0464 12.5002 14.2874C12.8514 14.8049 13.3968 15.1273 14.0774 15.2197Z" fill="black"/>
<path d="M8.92165 15.2245C8.94521 15.2245 8.96918 15.2229 8.99323 15.2196C9.67386 15.1273 10.2193 14.8048 10.5706 14.2873C10.7341 14.0463 10.6713 13.7184 10.4303 13.5548C10.1892 13.3913 9.86138 13.4541 9.69783 13.6951C9.51699 13.9616 9.23222 14.1229 8.85148 14.1745C8.56292 14.2137 8.3607 14.4794 8.39979 14.7679C8.43565 15.0325 8.66192 15.2245 8.92165 15.2245Z" fill="black"/>
<path d="M27.0045 15.2196C27.0287 15.2229 27.0526 15.2245 27.0763 15.2245C27.3359 15.2245 27.5622 15.0327 27.5982 14.7684C27.6376 14.4798 27.4355 14.2139 27.1469 14.1746C26.7671 14.1229 26.4819 13.9611 26.2993 13.6938C26.135 13.4534 25.8068 13.3915 25.5664 13.5558C25.3259 13.7201 25.2642 14.0482 25.4284 14.2888C25.7814 14.8053 26.3264 15.1272 27.0045 15.2196Z" fill="black"/>
<path d="M21.8511 15.2246C21.8748 15.2246 21.8988 15.2229 21.923 15.2196C22.6011 15.1272 23.1461 14.8054 23.499 14.2888C23.6633 14.0483 23.6015 13.7202 23.3611 13.5558C23.1205 13.3915 22.7924 13.4533 22.6281 13.6938C22.4455 13.9611 22.1603 14.1229 21.7806 14.1747C21.492 14.214 21.2899 14.4798 21.3293 14.7684C21.3652 15.0328 21.5914 15.2246 21.8511 15.2246Z" fill="black"/>
</g>
<defs>
<clipPath id="clip0">
<rect width="36" height="36" fill="white"/>
</clipPath>
</defs>
</svg>
