<svg width="36" height="36" viewBox="0 0 36 36" fill="none" xmlns="http://www.w3.org/2000/svg">
<g clip-path="url(#clip0)">
<path fill-rule="evenodd" clip-rule="evenodd" d="M17.2511 6.33705C15.491 7.55901 14.2631 9.47067 13.9082 11.6096C13.7049 12.8335 13.7867 14.1292 14.2172 15.415C17.4524 20.1433 23.6656 20.5141 28.332 17.3406C30.3971 14.2967 30.1181 10.1365 27.4908 7.39554C27.433 7.33577 27.3772 7.27594 27.3174 7.21814C24.6424 4.57284 20.3667 4.17417 17.2511 6.33705Z" fill="#FFD772"/>
<path fill-rule="evenodd" clip-rule="evenodd" d="M26.7741 7.99294C29.0701 10.3926 29.3152 14.0321 27.5096 16.6969L28.6476 17.7274L30.0168 17.7473C30.0307 17.7552 30.0447 17.7632 30.0587 17.7712C32.2151 14.0859 31.7129 9.27446 28.5539 6.11342C28.3705 5.93201 28.1852 5.75862 27.9919 5.59521L26.6466 5.98186L26.7741 7.99294Z" fill="#E29D7B"/>
<path fill-rule="evenodd" clip-rule="evenodd" d="M21.75 3.29303C19.2882 3.29303 16.8245 4.23191 14.9467 6.11172C12.7621 8.29647 11.8471 11.2706 12.2039 14.1152C13.1547 15.3591 14.1833 15.2694 15.158 15.0103C13.6271 10.4413 17.1314 5.69308 21.9573 5.84861L23.2011 3.40272C22.7208 3.32896 22.2344 3.29303 21.75 3.29303Z" fill="#E29D7B"/>
<path fill-rule="evenodd" clip-rule="evenodd" d="M12.477 32.7834C13.1847 28.8843 10.8345 24.2855 10.0392 22.7806C9.9455 22.6051 10.0611 22.5094 10.2166 22.633C11.0777 23.3069 13.083 24.8397 15.4591 25.8484C17.2929 23.9108 18.5766 21.1859 19.051 18.5087C18.1082 17.0196 16.7647 15.7997 15.158 15.0103C14.249 14.5638 13.2564 14.2568 12.2039 14.1153C12.0604 14.0974 11.9169 14.0814 11.7733 14.0675C9.12615 13.8323 6.63448 14.6894 4.74476 16.2702C2.85708 17.849 1.56938 20.1493 1.33412 22.7966C0.861686 28.0911 4.76867 32.7636 10.063 33.236C10.6351 33.2879 11.4185 33.3098 11.9905 33.244C12.3434 33.204 12.3973 33.23 12.477 32.7834Z" fill="#FFD772"/>
<path fill-rule="evenodd" clip-rule="evenodd" d="M23.3667 16.5392C22.4996 14.5517 22.061 12.6042 21.8657 11.6832C21.8258 11.4879 21.6763 11.4879 21.6344 11.6832C21.3773 12.8952 20.6976 15.8893 19.1767 18.409C20.6119 18.4369 22.0909 17.9645 23.3667 16.5392Z" fill="#CE8B6B"/>
<path fill-rule="evenodd" clip-rule="evenodd" d="M33.8657 29.9369C35.8729 25.4517 34.1646 20.2449 30.0603 17.7711C29.7254 17.5718 29.3766 17.3884 29.0118 17.2249C28.5175 17.0037 28.0152 16.8282 27.5109 16.6967C26.1275 16.3339 24.7162 16.294 23.3667 16.5392C22.7787 16.6468 22.2046 16.8063 21.6505 17.0196C20.7655 17.3565 19.9302 17.825 19.1768 18.409C19.1727 18.415 19.0671 18.4967 19.0512 18.5087C18.3216 19.0948 17.6718 19.7904 17.1296 20.5898C16.8147 21.0523 16.5356 21.5506 16.2984 22.0789C15.7502 23.3049 15.4791 24.5846 15.4592 25.8484C15.3974 29.5821 17.5283 33.1702 21.1522 34.7928C21.6764 35.026 22.412 35.3031 22.9741 35.4267C23.321 35.5045 23.3628 35.5463 23.5841 35.1517C25.5216 31.6931 24.798 26.5821 24.5349 24.8996C24.503 24.7023 24.6426 24.6485 24.7522 24.8159C25.6751 26.2451 28.5455 30.539 32.293 31.8247C32.7215 31.9722 32.7236 31.9124 32.9309 31.6254C33.2677 31.1568 33.6324 30.4611 33.8657 29.9369Z" fill="#FFD772"/>
<path fill-rule="evenodd" clip-rule="evenodd" d="M29.1139 2.64535L25.0201 0.566561C24.8547 0.482819 24.6514 0.548631 24.5677 0.714077L23.2004 3.4048L21.9568 5.85033C22.0444 5.8523 22.1321 5.85631 22.2199 5.86229C23.4735 5.94603 24.6693 6.36453 25.6938 7.07412C26.0366 7.30932 26.3615 7.5784 26.6664 7.88335C26.7023 7.91921 26.7382 7.95711 26.7741 7.99297L27.9918 5.59524L29.2614 3.09985C29.3451 2.93433 29.2774 2.72909 29.1139 2.64535Z" fill="#F9F7F8"/>
<path fill-rule="evenodd" clip-rule="evenodd" d="M25.9469 4.55472L24.9045 6.60166C25.1696 6.73722 25.4287 6.89065 25.6778 7.06207C25.6898 7.07001 25.6998 7.07803 25.7117 7.08401C26.0466 7.31723 26.3675 7.58428 26.6664 7.88325C26.7023 7.91911 26.7362 7.95497 26.772 7.99286H26.774L27.9918 5.59514L29.2613 3.09975C29.3451 2.9343 29.2773 2.72906 29.1138 2.64532L27.0669 1.60687C27.2324 1.69061 27.2981 1.89389 27.2145 2.05933L25.9469 4.55472Z" fill="#E5E4ED"/>
<path fill-rule="evenodd" clip-rule="evenodd" d="M1.33418 22.7965C0.861747 28.091 4.76873 32.7635 10.0631 33.236C10.6351 33.2878 11.4185 33.3097 11.9906 33.2439C12.3434 33.2041 12.3972 33.23 12.477 32.7834C12.6025 32.0917 12.6324 31.3781 12.5906 30.6644C11.2471 30.6784 10.0749 30.5588 9.09225 30.2937C5.85907 29.4565 3.61055 26.3806 3.91753 22.944C4.08101 21.1001 4.96202 19.4156 6.38332 18.2276C7.80258 17.0395 9.6165 16.4714 11.4604 16.6368C12.8956 16.7644 14.1873 17.3186 15.2258 18.1638C16.0311 18.8176 16.683 19.6489 17.1295 20.5898C17.6716 19.7904 18.3215 19.0947 19.051 18.5087C18.1082 17.0196 16.7647 15.7996 15.158 15.0103C14.9288 14.8986 14.6976 14.7969 14.4584 14.7013C13.7467 14.4203 12.9913 14.2209 12.2039 14.1153C12.0604 14.0973 11.9168 14.0794 11.7733 14.0674C9.12607 13.8323 6.63441 14.6894 4.74469 16.2701C2.85708 17.8489 1.56937 20.1493 1.33418 22.7965Z" fill="#E29D7B"/>
<path fill-rule="evenodd" clip-rule="evenodd" d="M11.4604 16.6369C9.61648 16.4715 7.80256 17.0396 6.3833 18.2277C5.38859 19.0609 4.65706 20.1354 4.25241 21.3393C4.58133 20.8948 4.96404 20.4862 5.39661 20.1234C6.81783 18.9353 8.63182 18.3672 10.4756 18.5306C13.0131 18.7579 15.1101 20.3207 16.1347 22.4656C16.348 21.9274 16.6072 21.4111 16.9141 20.9207C16.9839 20.809 17.0557 20.6975 17.1294 20.5898C16.683 19.6489 16.0311 18.8177 15.2258 18.1638C14.1873 17.3187 12.8956 16.7645 11.4604 16.6369Z" fill="#FBBA58"/>
<path fill-rule="evenodd" clip-rule="evenodd" d="M26.772 7.99297V7.99101V7.99297ZM20.3883 5.97993C22.0126 6.12147 23.5313 6.82501 24.6973 7.99101C26.9794 10.2731 27.3421 13.7471 25.7875 16.4099C26.3615 16.4518 26.9375 16.5475 27.5095 16.697C29.3152 14.0322 29.0701 10.3927 26.7741 7.99297H26.7721V7.99101H26.7701C26.4333 7.64619 26.0745 7.33527 25.6779 7.06225C25.66 7.0503 25.644 7.03834 25.6261 7.02639C25.3929 6.86896 25.1517 6.72742 24.9046 6.60184C24.0755 6.17933 23.1646 5.92621 22.2199 5.86237C21.6021 5.8225 20.9783 5.85836 20.3704 5.97993H20.3883Z" fill="#FBBA58"/>
<path fill-rule="evenodd" clip-rule="evenodd" d="M25.7886 16.4096C24.3813 16.306 22.966 16.5172 21.6504 17.0196C20.7654 17.3564 19.9301 17.8249 19.1767 18.4089C19.1727 18.4149 19.067 18.4966 19.0511 18.5086C18.9095 18.6203 18.774 18.7379 18.6385 18.8575C18.0763 19.3657 17.5681 19.9439 17.1295 20.5897C17.0558 20.6974 16.984 20.8091 16.9142 20.9206C16.683 21.2894 16.4757 21.6821 16.2983 22.0788C15.7501 23.3048 15.479 24.5846 15.4591 25.8484C15.3973 29.582 17.5282 33.1701 21.1521 34.7927C21.6763 35.026 22.4119 35.3031 22.974 35.4267C23.3209 35.5044 23.3627 35.5463 23.584 35.1516C23.9349 34.5257 24.198 33.8439 24.3933 33.1402C23.6239 32.9728 22.5136 32.5621 21.194 31.693C18.4093 29.8491 17.285 26.2091 18.6943 23.0596C19.4618 21.3413 20.873 20.0256 22.6391 19.3738C23.3946 19.0967 24.18 18.9532 24.9654 18.9453C25.958 18.9333 26.9507 19.1367 27.8796 19.5513C31.0291 20.9606 32.6178 24.4232 31.7687 27.6545C31.2943 29.2053 30.8617 29.8133 30.174 30.7503C30.8398 31.1968 31.5493 31.5695 32.2929 31.8247C32.7215 31.9722 32.7235 31.9124 32.9308 31.6254C33.2676 31.1569 33.6324 30.4612 33.8656 29.937C35.8729 25.4518 34.1646 20.245 30.0603 17.7712L30.0185 17.7473C29.6976 17.5559 29.3607 17.3805 29.0118 17.225C28.5275 17.0077 28.0231 16.8303 27.5109 16.6968C26.9387 16.5472 26.3627 16.4515 25.7886 16.4096Z" fill="#E29D7B"/>
<path fill-rule="evenodd" clip-rule="evenodd" d="M25.8951 19.6965C29.0461 21.1056 30.6326 24.5677 29.7856 27.7985C29.5066 28.7034 29.2434 29.2874 28.9365 29.8036C29.3272 30.1405 29.7417 30.4593 30.1722 30.7483C30.8598 29.8116 31.2923 29.2036 31.7667 27.653C32.6157 24.4222 31.0273 20.9601 27.8782 19.551C27.1209 19.2122 26.3355 19.0209 25.5523 18.9631C25.3569 18.9491 25.1596 18.9432 24.9643 18.9451C24.4959 18.9491 24.0336 19.0029 23.5791 19.1006C23.5712 19.1026 23.5632 19.1046 23.5552 19.1066C23.7346 19.1185 23.914 19.1385 24.0933 19.1663C24.7072 19.258 25.3151 19.4354 25.8951 19.6965Z" fill="#FBBA58"/>
<path fill-rule="evenodd" clip-rule="evenodd" d="M28.1273 17.7712C32.231 20.2446 33.9391 25.4506 31.9321 29.9351C31.7407 30.3657 31.4617 30.9078 31.1827 31.3483C31.5435 31.5336 31.9122 31.6931 32.2908 31.8226C32.7193 31.9701 32.7213 31.9103 32.9286 31.6233C33.2654 31.1549 33.6302 30.4593 33.8633 29.9351C35.8703 25.4505 34.1623 20.2445 30.0586 17.7711L30.0168 17.7472C29.6959 17.5559 29.3591 17.3804 29.0102 17.225C28.8687 17.1612 28.7272 17.1034 28.5857 17.0476C28.5678 17.0396 28.5498 17.0336 28.5339 17.0256C28.1971 16.8981 27.8562 16.7864 27.5094 16.6968C26.9374 16.5453 26.3614 16.4516 25.7874 16.4098C25.7754 16.4078 25.7615 16.4078 25.7495 16.4078C25.2054 16.3699 24.6613 16.3779 24.1211 16.4337C24.6074 16.4815 25.0938 16.5692 25.5781 16.6968C26.0923 16.8303 26.5945 17.0077 27.0788 17.225C27.3559 17.3485 27.6249 17.4841 27.884 17.6295C27.9518 17.6694 28.0196 17.7073 28.0873 17.7471L28.1273 17.7712Z" fill="#CE8B6B"/>
<path fill-rule="evenodd" clip-rule="evenodd" d="M11.7733 14.0673C9.12614 13.8321 6.63447 14.6892 4.74475 16.27C3.65041 17.185 2.75941 18.3432 2.15543 19.6688C2.69564 18.8056 3.36937 18.0402 4.14281 17.3923C6.03049 15.8135 8.52222 14.9544 11.1693 15.1897C11.3129 15.2036 11.4564 15.2195 11.5999 15.2375C12.3873 15.3431 13.1448 15.5445 13.8564 15.8255C14.0936 15.9191 14.3248 16.0229 14.5541 16.1344C14.6777 16.1942 14.7992 16.2581 14.9208 16.3238C15.8876 16.8521 16.7487 17.5398 17.4743 18.3471C17.7374 18.6402 17.9826 18.9491 18.2078 19.2721C18.3473 19.1286 18.4909 18.991 18.6384 18.8574C18.774 18.7378 18.9096 18.6202 19.051 18.5086C18.1082 17.0195 16.7647 15.7995 15.158 15.0102C14.9288 14.8986 14.6976 14.7969 14.4584 14.7013C14.2989 14.6395 14.1374 14.5797 13.974 14.5258C13.4058 14.3365 12.8159 14.1969 12.2039 14.1152C12.0604 14.0973 11.9169 14.0793 11.7733 14.0673Z" fill="#CE8B6B"/>
<path fill-rule="evenodd" clip-rule="evenodd" d="M27.9918 5.59521L27.2285 7.098C29.68 9.42795 30.7403 13.0694 30.6626 16.5454C32.0756 13.0674 31.3741 8.93365 28.5539 6.11342C28.3705 5.93208 28.1851 5.75862 27.9918 5.59521Z" fill="#CE8B6B"/>
<path d="M21.4254 24.5107C21.2194 24.3048 20.8854 24.3048 20.6795 24.5107C20.4735 24.7167 20.4735 25.0507 20.6795 25.2566L20.6814 25.2586C20.7842 25.3613 20.9185 25.4126 21.0529 25.4126C21.188 25.4126 21.3231 25.3608 21.4263 25.2576C21.6324 25.0516 21.6313 24.7167 21.4254 24.5107Z" fill="black"/>
<path d="M25.032 21.7314C24.826 21.9373 24.826 22.2712 25.032 22.4771L25.0339 22.4791C25.1367 22.5818 25.271 22.6331 25.4053 22.6331C25.5403 22.6331 25.6755 22.5813 25.7787 22.4781C25.9846 22.2722 25.9836 21.9373 25.7777 21.7313C25.5718 21.5254 25.2378 21.5254 25.032 21.7314Z" fill="black"/>
<path d="M28.6932 24.9483C28.4872 25.1542 28.4872 25.4882 28.6932 25.694L28.6952 25.696C28.7979 25.7987 28.9322 25.85 29.0665 25.85C29.2015 25.85 29.3367 25.7982 29.4399 25.695C29.6458 25.4891 29.6449 25.1542 29.4389 24.9482C29.233 24.7423 28.8991 24.7423 28.6932 24.9483Z" fill="black"/>
<path d="M21.4828 28.3959C21.2768 28.6018 21.2768 28.9358 21.4828 29.1417L21.4848 29.1437C21.5875 29.2464 21.7218 29.2977 21.8562 29.2977C21.9913 29.2977 22.1264 29.2459 22.2297 29.1427C22.4357 28.9368 22.4346 28.6018 22.2287 28.3959C22.0227 28.1899 21.6887 28.1899 21.4828 28.3959Z" fill="black"/>
<path d="M7.77649 26.5659C7.57048 26.7718 7.57048 27.1058 7.77649 27.3118L7.77846 27.3137C7.88118 27.4165 8.01548 27.4677 8.14992 27.4677C8.28499 27.4677 8.42013 27.416 8.52335 27.3128C8.72936 27.1068 8.72831 26.7718 8.52236 26.5659C8.31642 26.36 7.98243 26.36 7.77649 26.5659Z" fill="black"/>
<path d="M12.8895 20.1392C12.6835 20.3451 12.6835 20.6791 12.8895 20.8851L12.8914 20.887C12.9942 20.9898 13.1285 21.041 13.2629 21.041C13.398 21.041 13.5331 20.9893 13.6363 20.8861C13.8423 20.6801 13.8413 20.3451 13.6353 20.1392C13.4294 19.9333 13.0954 19.9333 12.8895 20.1392Z" fill="black"/>
<path d="M17.0914 12.3111C16.8854 12.517 16.8854 12.851 17.0914 13.057L17.0934 13.0589C17.1961 13.1616 17.3304 13.2129 17.4648 13.2129C17.5999 13.2129 17.735 13.1612 17.8383 13.0579C18.0443 12.852 18.0432 12.517 17.8373 12.3111C17.6313 12.1051 17.2973 12.1051 17.0914 12.3111Z" fill="black"/>
<path d="M24.2686 10.1895C24.3713 10.2923 24.5056 10.3435 24.6399 10.3435C24.7749 10.3435 24.9101 10.2918 25.0133 10.1885C25.2192 9.9826 25.2183 9.6477 25.0123 9.44175C24.8064 9.23581 24.4725 9.23581 24.2666 9.44175C24.0606 9.6477 24.0606 9.98161 24.2666 10.1875L24.2686 10.1895Z" fill="black"/>
<path d="M25.1563 14.2722L25.1583 14.2743C25.2613 14.379 25.397 14.4314 25.5329 14.4314C25.6665 14.4314 25.8002 14.3808 25.9031 14.2796C26.1108 14.0754 26.1127 13.7405 25.9085 13.5328C25.7044 13.3251 25.3705 13.3223 25.1628 13.5264C24.955 13.7307 24.9521 14.0645 25.1563 14.2722Z" fill="black"/>
<path d="M19.4775 9.00435C19.5802 9.10708 19.7145 9.15833 19.8489 9.15833C19.984 9.15833 20.1191 9.10658 20.2224 9.00337C20.4284 8.79742 20.4273 8.46245 20.2214 8.25651C20.0154 8.05056 19.6814 8.05056 19.4755 8.25651C19.2695 8.46245 19.2695 8.79644 19.4755 9.00238L19.4775 9.00435Z" fill="black"/>
<path d="M6.3772 23.0456C6.17118 23.2515 6.17118 23.5855 6.3772 23.7915L6.37917 23.7934C6.48189 23.8961 6.61619 23.9474 6.75063 23.9474C6.8857 23.9474 7.02084 23.8957 7.12405 23.7924C7.33007 23.5865 7.32902 23.2515 7.12307 23.0456C6.91706 22.8396 6.58314 22.8396 6.3772 23.0456Z" fill="black"/>
<path d="M8.20505 19.5491C7.99903 19.7551 7.99903 20.089 8.20505 20.295L8.20702 20.297C8.30974 20.3997 8.44404 20.4509 8.57848 20.4509C8.71355 20.4509 8.84869 20.3992 8.95191 20.296C9.15792 20.09 9.15687 19.7551 8.95092 19.5491C8.74498 19.3432 8.41106 19.3432 8.20505 19.5491Z" fill="black"/>
<path d="M30.759 17.5943C32.7909 13.6906 32.0706 8.88317 28.9263 5.73676C28.8303 5.64183 28.7383 5.55387 28.6485 5.47048L29.7336 3.33587C29.9483 2.91167 29.7789 2.39037 29.3543 2.17297L25.2593 0.0934751C25.0539 -0.0104468 24.8201 -0.0284468 24.6011 0.0428501C24.381 0.114428 24.2023 0.267358 24.0985 0.4726L22.8999 2.83053C22.521 2.78743 22.1357 2.76563 21.7501 2.76563C19.9751 2.76563 18.2286 3.23033 16.6993 4.10958C16.4467 4.25478 16.3597 4.57716 16.5049 4.82965C16.6024 4.99939 16.7799 5.09431 16.9626 5.09431C17.0518 5.09431 17.1422 5.07167 17.2249 5.024C18.5946 4.23664 20.1594 3.82039 21.7501 3.82039C21.9625 3.82039 22.1744 3.82862 22.3852 3.84324L21.6351 5.31861C19.6811 5.34786 17.8477 6.12277 16.4617 7.50877C14.7047 9.26405 13.9534 11.7146 14.384 14.1067C13.8372 13.9095 13.27 13.7586 12.6873 13.6566C12.4665 10.9859 13.4134 8.39112 15.3197 6.48474C15.5257 6.27872 15.5257 5.94481 15.3197 5.73887C15.1137 5.53292 14.7798 5.53292 14.5738 5.73887C12.4977 7.81505 11.441 10.6228 11.6201 13.5268C8.98832 13.3441 6.43331 14.17 4.40641 15.8656C3.01893 17.0262 1.96607 18.5337 1.36174 20.2251C1.26372 20.4994 1.40659 20.8012 1.68095 20.8992C1.73959 20.9201 1.7995 20.9301 1.85842 20.9301C2.07499 20.9301 2.27805 20.7957 2.35511 20.58C2.89631 19.0653 3.83969 17.715 5.08323 16.6747C6.94539 15.117 9.30473 14.3776 11.7265 14.5928C14.4142 14.8327 16.8023 16.2152 18.3479 18.4071C17.9311 18.7759 17.5456 19.179 17.1948 19.6134C15.9625 17.6387 13.8521 16.321 11.5076 16.1116C9.51644 15.9332 7.5768 16.5409 6.04518 17.8231C4.51082 19.1056 3.5687 20.9078 3.39236 22.8972C3.23374 24.6728 3.71516 26.4493 4.74784 27.8997C5.76899 29.3338 7.26503 30.3654 8.95506 30.803C9.83938 31.0416 10.888 31.1713 12.0776 31.1903C12.0826 31.7714 12.0343 32.2704 11.958 32.6908C11.9563 32.7003 11.9547 32.7092 11.9531 32.7176L11.9306 32.7201C11.3718 32.7844 10.6011 32.7552 10.1102 32.7107C5.11516 32.265 1.41405 27.8386 1.85976 22.8435C1.88563 22.5534 1.67146 22.2972 1.38128 22.2713C1.09068 22.2449 0.834954 22.4596 0.809079 22.7498C0.311407 28.3241 4.44184 33.2639 10.0154 33.7612C10.3371 33.7904 10.7447 33.8123 11.1535 33.8123C11.464 33.8123 11.7751 33.7997 12.0499 33.768L12.1139 33.7611C12.6728 33.7015 12.8871 33.4865 12.9959 32.8777C13.4358 30.4536 12.8559 27.499 11.2706 24.0759C12.214 24.737 13.4994 25.5502 14.9359 26.1952C15.0125 30.0039 17.2369 33.6183 20.9376 35.2747C21.4623 35.5082 22.2431 35.8061 22.8584 35.9414L22.9213 35.9557C23.0465 35.9847 23.1574 36 23.2576 36C23.595 36 23.8106 35.8257 24.044 35.4094C24.8963 33.888 25.7458 31.149 25.2757 26.5151C27.4706 29.5371 29.8169 31.5328 32.1212 32.3233C32.705 32.5243 32.9961 32.4429 33.3194 31.9884L33.3589 31.9332C33.7376 31.4067 34.1179 30.6675 34.347 30.1524C36.3897 25.5885 34.7724 20.2997 30.759 17.5943ZM29.8499 17.0497C29.6466 16.9415 29.4387 16.839 29.2255 16.7436C28.9256 16.6096 28.6215 16.491 28.3143 16.3871C29.8041 13.6635 29.4477 10.2702 27.4079 7.90955L28.1478 6.45401C28.159 6.46491 28.1696 6.47504 28.1808 6.48615C30.9809 9.2881 31.6333 13.563 29.8499 17.0497ZM24.9514 1.12306L28.7056 3.02944L26.6238 7.12473C25.5293 6.18162 24.2037 5.58502 22.7824 5.38983L24.9514 1.12306ZM15.5927 14.6354C14.9142 12.3646 15.5228 9.93772 17.2074 8.25479C18.4215 7.04063 20.0348 6.37203 21.75 6.37203C23.4667 6.37203 25.0806 7.0407 26.2945 8.25465C28.3833 10.3452 28.7672 13.5876 27.268 16.0943C26.0907 15.8323 24.8824 15.7842 23.6907 15.9515C22.9032 14.0326 22.5148 12.2016 22.3824 11.5778C22.3027 11.1869 22.0092 11.0105 21.7537 11.0093C21.7528 11.0093 21.7519 11.0093 21.751 11.0093C21.4959 11.0093 21.2022 11.1832 21.1185 11.5738C20.615 13.9472 19.9185 15.9607 19.0458 17.5731C18.1166 16.3276 16.9371 15.331 15.5927 14.6354ZM22.6363 16.157C22.241 16.2561 21.8491 16.3791 21.4627 16.5268C21.1454 16.6476 20.8364 16.7831 20.5364 16.9325C21.0006 15.896 21.406 14.7386 21.7488 13.4668C21.9577 14.2409 22.2478 15.1818 22.6363 16.157ZM14.9773 25.0514C12.8712 24.0402 11.1476 22.6918 10.5448 22.2202C10.2319 21.9714 9.89338 22.0256 9.69665 22.1896C9.49999 22.3535 9.38573 22.6766 9.5729 23.027C11.1641 26.0379 11.822 28.3762 12.0141 30.1337C10.9455 30.1115 10.0102 29.995 9.22457 29.7831C6.17294 28.9929 4.162 26.1364 4.44297 22.9905C4.59442 21.2817 5.40372 19.7339 6.72194 18.632C8.03749 17.5308 9.70361 17.009 11.4135 17.1622C13.5756 17.3552 15.506 18.6453 16.5201 20.5531C16.2566 20.9687 16.0213 21.4062 15.8168 21.8636C15.3527 22.9017 15.0779 23.9773 14.9773 25.0514ZM25.1932 24.5269C24.9748 24.1934 24.6374 24.137 24.3995 24.2292C24.1622 24.3213 23.9511 24.5897 24.0138 24.9822C24.5394 28.3436 24.4002 30.7684 24.0095 32.4934C23.378 32.299 22.5205 31.9353 21.4851 31.2533C18.857 29.5131 17.8858 26.1578 19.1758 23.2748C19.8759 21.7082 21.1444 20.5085 22.7473 19.8965C24.3522 19.2844 26.0984 19.3328 27.6642 20.0326C30.5448 21.3217 32.0562 24.4652 31.2611 27.5103C30.8815 28.7485 30.5269 29.3531 30.0533 30.0189C28.6415 28.9819 26.9758 27.2874 25.1932 24.5269ZM33.3837 29.7225C33.1849 30.1694 32.8349 30.8553 32.5031 31.3166L32.4902 31.3347C32.482 31.3319 32.4733 31.3289 32.464 31.3258C32.0157 31.172 31.5008 30.9427 30.9311 30.6033C31.4839 29.8204 31.8634 29.1478 32.2729 27.8088C32.275 27.8022 32.2769 27.7954 32.2787 27.7886C32.7239 26.0946 32.5539 24.2853 31.8002 22.694C31.0382 21.0852 29.7224 19.7981 28.0948 19.0698C26.2718 18.2551 24.2393 18.1987 22.3712 18.9111C20.5047 19.6237 19.0278 21.0206 18.2128 22.8443C17.4847 24.4715 17.3613 26.308 17.8654 28.0154C18.3639 29.7038 19.4426 31.1661 20.9038 32.1336C22.0489 32.8879 23.0124 33.2922 23.7266 33.5097C23.5418 34.0624 23.3332 34.52 23.1237 34.8938C23.1192 34.902 23.1148 34.9097 23.1107 34.917L23.0871 34.9116C22.5461 34.7926 21.822 34.5137 21.3674 34.3114C16.7913 32.2631 14.7333 26.8722 16.7796 22.2942C17.7713 20.0756 19.5677 18.3774 21.8386 17.5123C22.8923 17.1096 23.9898 16.9089 25.0857 16.9089C26.3482 16.9089 27.6085 17.1754 28.7963 17.7063C33.3742 19.7555 35.4324 25.1454 33.3837 29.7225Z" fill="black"/>
</g>
<defs>
<clipPath id="clip0">
<rect width="36" height="36" fill="white"/>
</clipPath>
</defs>
</svg>
