<svg width="27" height="36" viewBox="0 0 27 36" fill="none" xmlns="http://www.w3.org/2000/svg">
<rect x="0.5" y="0.5" width="25.4" height="35" rx="1.5" fill="#FAFAFA" stroke="black"/>
<path fill-rule="evenodd" clip-rule="evenodd" d="M6.3993 12.3252H20.9324C21.1525 12.3252 21.3318 12.1675 21.3318 11.9738V9.22066C21.3318 9.02711 21.1525 8.86932 20.9324 8.86932H6.3993C6.17927 8.86932 5.99997 9.02702 5.99997 9.22066V11.9738C5.99997 12.1675 6.17927 12.3252 6.3993 12.3252Z" fill="#A7E9A6"/>
<path fill-rule="evenodd" clip-rule="evenodd" d="M18.2775 12.3252C18.4592 13.8643 18.5526 15.4487 18.5526 17.0643C18.5526 20.6587 18.0861 24.0929 17.2347 27.2476C17.2371 27.3074 17.2371 27.3696 17.2371 27.434C17.2371 28.5166 16.8711 29.5132 16.2565 30.309C15.5724 32.1492 14.7497 33.8628 13.8097 35.4234H23.5106C24.4267 35.4234 25.1777 34.685 25.1967 33.7768V30.9256L25.0963 30.928C22.7643 30.928 20.8773 29.04 20.8773 26.7123C20.8773 24.3845 22.7643 22.4966 25.0963 22.4966H25.1967V5.93705C24.6491 6.19515 24.0368 6.33859 23.3934 6.33859C21.0543 6.33859 19.1576 4.44344 19.1576 2.10609C19.1576 1.566 19.2581 1.0498 19.4422 0.576538H14.8429C16.0962 3.05725 17.0744 5.85343 17.7107 8.86942H20.9802C21.1739 8.86942 21.3318 9.02712 21.3318 9.22076V11.9739C21.3318 12.1675 21.1739 12.3253 20.9802 12.3253H18.2775V12.3252Z" fill="#E5E4ED"/>
<path fill-rule="evenodd" clip-rule="evenodd" d="M17.7106 8.86941C17.9474 9.99269 18.1388 11.1446 18.2775 12.3252H20.9802C21.1739 12.3252 21.3318 12.1675 21.3318 11.9738V9.22066C21.3318 9.02711 21.1739 8.86932 20.9802 8.86932H17.7106V8.86941Z" fill="#7FDBAE"/>
<path d="M18.9318 15.0645H11.8832C11.5337 15.0645 11.2504 15.3478 11.2504 15.6973C11.2504 16.0467 11.5337 16.3301 11.8832 16.3301H18.9318C19.2813 16.3301 19.5646 16.0467 19.5646 15.6973C19.5646 15.3478 19.2813 15.0645 18.9318 15.0645Z" fill="black"/>
<path d="M5.4328 16.3301H7.54715C7.89672 16.3301 8.17996 16.0467 8.17996 15.6973C8.17996 15.3478 7.89672 15.0645 7.54715 15.0645H5.4328C5.08323 15.0645 4.79999 15.3478 4.79999 15.6973C4.79999 16.0467 5.08332 16.3301 5.4328 16.3301Z" fill="black"/>
<path d="M5.4328 19.1407H7.54715C7.89672 19.1407 8.17996 18.8574 8.17996 18.5079C8.17996 18.1584 7.89672 17.8751 7.54715 17.8751H5.4328C5.08323 17.8751 4.79999 18.1584 4.79999 18.5079C4.79999 18.8574 5.08332 19.1407 5.4328 19.1407Z" fill="black"/>
<path d="M18.9318 17.8751H11.8832C11.5337 17.8751 11.2504 18.1584 11.2504 18.5079C11.2504 18.8574 11.5337 19.1407 11.8832 19.1407H18.9318C19.2813 19.1407 19.5646 18.8574 19.5646 18.5079C19.5646 18.1584 19.2813 17.8751 18.9318 17.8751Z" fill="black"/>
<path d="M21.6 9.22078C21.6 8.67817 21.0976 8.23663 20.4799 8.23663H5.9201C5.30239 8.23663 4.79999 8.67808 4.79999 9.22078V11.9739C4.79999 12.5166 5.30239 12.9581 5.9201 12.9581H20.4799C21.0976 12.9581 21.6 12.5166 21.6 11.9739V9.22078ZM20.1599 11.6925H6.24009V9.50226H20.1599V11.6925Z" fill="black"/>
<mask id="mask0" mask-type="alpha" maskUnits="userSpaceOnUse" x="0" y="0" width="27" height="36">
<rect x="0.5" y="0.5" width="25.4" height="35" rx="1.5" fill="#C4C4C4" stroke="black"/>
</mask>
<g mask="url(#mask0)">
<circle cx="25.8" cy="27" r="6.1" fill="#FFD772" stroke="black"/>
<path fill-rule="evenodd" clip-rule="evenodd" d="M0.632812 28.3748C0.632812 30.9701 2.73991 33.0756 5.33976 33.0756C4.43087 33.0756 3.69428 30.9701 3.69428 28.3748C3.69428 25.7769 4.43095 23.6714 5.33976 23.6714C2.73991 23.6714 0.632812 25.7769 0.632812 28.3748Z" fill="#F37C7C"/>
<path fill-rule="evenodd" clip-rule="evenodd" d="M5.33969 33.0756C7.93709 33.0756 10.0443 30.9701 10.0443 28.3748C10.0443 25.7769 7.93717 23.6714 5.33969 23.6714C6.24858 23.6714 6.98517 25.7769 6.98517 28.3748C6.98517 30.9702 6.24858 33.0756 5.33969 33.0756Z" fill="#F37C7C"/>
<path fill-rule="evenodd" clip-rule="evenodd" d="M3.69427 28.3748C3.69427 30.9701 4.43095 33.0756 5.33975 33.0756C6.24856 33.0756 6.98524 30.9701 6.98524 28.3748C6.98524 25.7769 6.24856 23.6714 5.33975 23.6714C4.43095 23.6714 3.69427 25.7769 3.69427 28.3748Z" fill="#FFD772"/>
<path d="M5.33976 33.7085C8.28284 33.7085 10.6771 31.3158 10.6771 28.3748C10.6771 25.6466 8.61831 23.3915 5.97257 23.0775V22.2328C5.97257 21.8833 5.68932 21.6 5.33976 21.6C4.99019 21.6 4.70694 21.8833 4.70694 22.2328V23.0775C2.05993 23.3914 0 25.6465 0 28.3748C0 31.3158 2.39541 33.7085 5.33976 33.7085ZM9.41152 28.3748C9.41152 30.0114 8.43859 31.4244 7.04076 32.0695C7.43141 31.0496 7.61805 29.6871 7.61805 28.3748C7.61805 27.0617 7.43141 25.6982 7.0405 24.6778C8.43851 25.3232 9.41152 26.7371 9.41152 28.3748ZM5.33976 24.3064C5.62798 24.4114 6.35243 25.7797 6.35243 28.3748C6.35243 30.9685 5.62798 32.336 5.33976 32.4408C5.05153 32.336 4.327 30.9685 4.327 28.3748C4.327 25.7796 5.05153 24.4112 5.33976 24.3064ZM3.63918 24.6773C3.24818 25.6977 3.06146 27.0614 3.06146 28.3748C3.06146 29.6872 3.2481 31.0501 3.63893 32.07C2.23965 31.4252 1.26571 30.0119 1.26571 28.3748C1.26563 26.7366 2.23973 25.3224 3.63918 24.6773Z" fill="black"/>
<circle cx="24.6" cy="1.80002" r="4.9" fill="#FFD772" stroke="black"/>
</g>
<rect x="0.5" y="0.5" width="25.4" height="35" rx="1.5" stroke="black"/>
</svg>
