<svg width="36" height="36" viewBox="0 0 36 36" fill="none" xmlns="http://www.w3.org/2000/svg">
<g clip-path="url(#clip0)">
<path fill-rule="evenodd" clip-rule="evenodd" d="M32.477 10.5475C31.0818 10.7708 29.8122 11.5002 28.9791 12.7001C28.4728 13.4296 28.1839 14.2528 28.1001 15.0959C28.4509 15.3291 28.7638 16.3815 29.0409 16.6366C29.6129 16.2479 30.3085 15.9669 31.022 15.8393C31.4605 15.7596 31.8551 14.9404 32.2817 14.9742C33.1068 13.7784 33.346 12.3373 33.067 10.958C32.9813 10.5296 32.9095 10.4797 32.477 10.5475Z" fill="#A7E9A6"/>
<path fill-rule="evenodd" clip-rule="evenodd" d="M32.2816 14.9744C31.8551 14.9405 31.4186 14.9605 30.9821 15.0381C30.2666 15.1677 29.6128 15.4428 29.0408 15.8314C29.254 17.0413 29.836 18.1136 30.416 19.0065C30.5954 18.9746 30.7788 18.9587 30.9641 18.9587C31.1614 18.9587 31.3528 18.9766 31.5381 19.0105C31.59 19.0026 31.6418 18.9946 31.6936 18.9846C33.1287 18.7255 34.3225 17.8744 35.1038 16.6984C35.345 16.3317 35.3311 16.248 34.9742 15.9909C34.1811 15.4129 33.2543 15.0541 32.2816 14.9744Z" fill="#4FC9AF"/>
<path fill-rule="evenodd" clip-rule="evenodd" d="M31.5602 11.1414C31.8313 12.4867 31.6101 13.888 30.8347 15.0679C30.8825 15.0559 30.9324 15.048 30.9822 15.038C31.4187 14.9602 31.8552 14.9403 32.2818 14.9742C33.1069 13.7784 33.3461 12.3373 33.0671 10.958C32.9814 10.5294 32.9096 10.4796 32.4771 10.5474C32.1263 10.6032 31.7835 10.6909 31.4526 10.8105C31.4984 10.8803 31.5283 10.9859 31.5602 11.1414Z" fill="#7FDBAE"/>
<path fill-rule="evenodd" clip-rule="evenodd" d="M34.0416 15.8892C33.2623 17.0651 32.0684 17.9162 30.6313 18.1753C30.5815 18.1853 30.5297 18.1932 30.4778 18.2013C30.4579 18.1972 30.436 18.1933 30.4141 18.1893C30.4539 18.4604 30.4539 18.7314 30.416 19.0065C30.5954 18.9745 30.7788 18.9587 30.9641 18.9587C31.1614 18.9587 31.3528 18.9766 31.5381 19.0105C31.59 19.0025 31.6418 18.9945 31.6936 18.9845C33.1287 18.7254 34.3225 17.8744 35.1038 16.6984C35.345 16.3316 35.3311 16.248 34.9743 15.9908C34.7311 15.8115 34.474 15.656 34.2049 15.5204C34.211 15.6141 34.1532 15.7217 34.0416 15.8892Z" fill="#26BB9E"/>
<path fill-rule="evenodd" clip-rule="evenodd" d="M5.59188 19.0743C4.38602 18.9687 3.28183 19.8975 3.53897 21.1652C2.79555 21.3665 2.24944 22.0441 2.24944 22.8494C2.24944 23.1523 2.3272 23.4353 2.46269 23.6845L5.29692 24.715L8.16897 23.6845C8.77886 22.6142 7.76433 20.2862 5.59188 19.0743Z" fill="#E29D7B"/>
<path fill-rule="evenodd" clip-rule="evenodd" d="M11.4456 13.5293C7.46733 14.6714 5.22907 16.8479 5.59181 19.0743C5.64166 19.3753 5.73729 19.6763 5.8808 19.9752C6.11002 20.4456 6.64418 22.084 8.16891 23.6845L16.4124 25.6219L28.106 23.6845C29.1145 22.3132 29.848 19.8098 30.4161 19.0065C30.5715 17.8904 30.0772 16.7921 29.0408 15.8314C28.7638 15.5763 28.4508 15.3291 28.1 15.096C27.1493 14.4641 25.9315 13.92 24.4885 13.5114C20.9727 12.7879 17.0702 13.1766 11.4456 13.5293Z" fill="#FFD772"/>
<path fill-rule="evenodd" clip-rule="evenodd" d="M24.4886 13.5114C22.4158 11.2492 13.367 11.1893 11.4456 13.5293C11.2064 13.8204 11.0789 14.1492 11.0869 14.516V19.2756C11.0869 20.035 11.7087 20.6569 12.4701 20.6569C13.2295 20.6569 13.8514 20.0351 13.8514 19.2756V16.2141C13.8514 15.4548 14.4752 14.8329 15.2346 14.8329C15.994 14.8329 16.6179 15.4547 16.6179 16.2141V17.8685C16.6179 18.6299 17.2397 19.2517 17.9991 19.2517C18.7604 19.2517 19.3823 18.6299 19.3823 17.8685V16.9177C19.3823 16.1583 20.0042 15.5364 20.7636 15.5364C21.5249 15.5364 22.1467 16.1582 22.1467 16.9177V17.8685C22.1467 18.6299 22.7686 19.2517 23.53 19.2517C24.2894 19.2517 24.9112 18.6299 24.9112 17.8685V14.516C24.9112 14.1432 24.7596 13.8084 24.4886 13.5114Z" fill="#F37C7C"/>
<path fill-rule="evenodd" clip-rule="evenodd" d="M34.1911 22.1857C34.1911 20.5991 33.047 19.2816 31.5382 19.0106C31.3529 18.9767 31.1616 18.9587 30.9642 18.9587C30.7789 18.9587 30.5955 18.9747 30.4161 19.0066C28.8954 19.2657 27.7374 20.5911 27.7374 22.1857C27.7374 22.7278 27.8709 23.2361 28.1061 23.6845H33.8243C34.0595 23.2361 34.1911 22.7278 34.1911 22.1857Z" fill="#F37C7C"/>
<path fill-rule="evenodd" clip-rule="evenodd" d="M32.6883 27.5592L17.9293 26.2935L3.31171 27.5592V28.8508C3.31171 29.5623 3.89172 30.1424 4.60328 30.1424H31.3968C32.1063 30.1424 32.6883 29.5623 32.6883 28.8508V27.5592H32.6883Z" fill="#BED8FB"/>
<path fill-rule="evenodd" clip-rule="evenodd" d="M32.6883 27.5592H29.5032H27.6836V28.8508C27.6836 29.5623 27.1035 30.1423 26.392 30.1423H31.3967C32.1062 30.1423 32.6883 29.5623 32.6883 28.8508V27.5592Z" fill="#8EAADF"/>
<path fill-rule="evenodd" clip-rule="evenodd" d="M28.1061 23.6846H8.16898H2.46262H0.981773C0.730617 23.6846 0.527344 23.8878 0.527344 24.137V25.622C0.527344 26.6883 1.3983 27.5593 2.46466 27.5593H3.31172H32.6883H33.5334C34.5997 27.5593 35.4727 26.6883 35.4727 25.622V24.137C35.4727 23.8879 35.2673 23.6846 35.0182 23.6846H33.8243H28.1061Z" fill="#F9F7F8"/>
<path fill-rule="evenodd" clip-rule="evenodd" d="M33.8243 23.6846H30.9861C31.2352 23.6846 31.4405 23.8878 31.4405 24.137V25.622C31.4405 26.6883 30.5675 27.5593 29.5032 27.5593H32.6883H33.5334C34.5997 27.5593 35.4727 26.6883 35.4727 25.622V24.137C35.4727 23.8879 35.2673 23.6846 35.0182 23.6846H33.8243Z" fill="#E5E4ED"/>
<path fill-rule="evenodd" clip-rule="evenodd" d="M28.1001 15.0958C27.1494 14.464 25.9316 13.9198 24.4886 13.5112C24.7597 13.8082 24.9111 14.1431 24.9111 14.5158V15.6878C25.9236 16.1063 26.9441 16.6684 27.7513 17.4178C27.9327 17.5852 28.0961 17.7566 28.2436 17.9321C28.6782 18.4503 28.9651 18.9984 29.0887 19.5605C29.4754 19.2835 29.9278 19.0901 30.4161 19.0064C30.5437 18.0856 30.2288 17.1747 29.5312 16.3455C29.3857 16.17 29.2203 15.9987 29.0409 15.8312C28.7658 15.5761 28.453 15.3309 28.1022 15.0977C28.1021 15.0978 28.1001 15.0978 28.1001 15.0958Z" fill="#FBBA58"/>
<path fill-rule="evenodd" clip-rule="evenodd" d="M30.9642 18.9586C30.7789 18.9586 30.5955 18.9746 30.4161 19.0064C29.9278 19.0902 29.4754 19.2835 29.0887 19.5606C28.8475 19.734 28.6303 19.9373 28.4469 20.1685C28.5884 20.1226 28.7379 20.0868 28.8874 20.0608C29.0668 20.0289 29.2501 20.013 29.4355 20.013C29.589 20.013 29.7404 20.025 29.8879 20.0449C29.9278 20.0509 29.9696 20.0569 30.0095 20.0648C31.5183 20.3359 32.6644 21.6554 32.6644 23.242C32.6644 23.3915 32.6524 23.539 32.6325 23.6845H33.8243C34.0595 23.236 34.1911 22.7277 34.1911 22.1856C34.1911 20.5991 33.047 19.2816 31.5383 19.0105C31.3529 18.9766 31.1615 18.9586 30.9642 18.9586Z" fill="#EE6161"/>
<path fill-rule="evenodd" clip-rule="evenodd" d="M24.4886 13.5113C24.4866 13.5113 24.4866 13.5113 24.4846 13.5113H24.4886ZM23.506 14.5159V17.8684C23.506 18.3727 23.2309 18.8151 22.8263 19.0583C23.0317 19.1799 23.2728 19.2516 23.5299 19.2516C24.2893 19.2516 24.9111 18.6298 24.9111 17.8684V15.6879V14.5159C24.9111 14.1432 24.7597 13.8083 24.4886 13.5113C23.3585 12.2795 20.1595 11.7016 17.1719 11.8072C19.4799 11.8889 21.7023 12.3752 22.7984 13.2482C22.904 13.332 22.9978 13.4196 23.0814 13.5113C23.3545 13.8083 23.506 14.1432 23.506 14.5159Z" fill="#EE6161"/>
<path d="M35.0182 23.1571H34.5914C34.6749 22.8437 34.7183 22.5193 34.7183 22.1857C34.7183 20.906 34.0743 19.7743 33.0937 19.0962C34.0706 18.6547 34.9161 17.9341 35.5444 16.9882C35.9414 16.3845 35.8681 15.9849 35.2846 15.5645C34.6191 15.0801 33.8869 14.7471 33.1265 14.5727C33.6828 13.4452 33.8465 12.1522 33.584 10.8548C33.4424 10.1469 33.1092 9.9147 32.3936 10.0268C30.7973 10.2823 29.4308 11.1249 28.5457 12.3995C28.1587 12.9573 27.8774 13.5852 27.7138 14.2464C26.864 13.7716 25.8716 13.3664 24.7672 13.0452C24.5684 12.8507 24.3148 12.6582 23.9918 12.475C21.1485 10.8626 14.5962 10.8627 11.9038 12.4751C11.5862 12.6653 11.3401 12.8659 11.1505 13.0684C10.1282 13.3708 9.2006 13.7453 8.39334 14.1843C8.13748 14.3234 8.04284 14.6436 8.18191 14.8994C8.27754 15.0754 8.45866 15.175 8.64569 15.175C8.73077 15.175 8.81712 15.1544 8.89713 15.1109C9.40106 14.8369 9.95892 14.5895 10.5623 14.3705C10.5594 14.4226 10.5584 14.4732 10.5595 14.5219V19.2757C10.5595 20.3281 11.4165 21.1843 12.47 21.1843C13.5224 21.1843 14.3786 20.3281 14.3786 19.2757V16.2142C14.3786 15.7434 14.7625 15.3603 15.2344 15.3603C15.7063 15.3603 16.0903 15.7433 16.0903 16.2142V17.8685C16.0903 18.922 16.9465 19.7791 17.9989 19.7791C19.0524 19.7791 19.9094 18.9221 19.9094 17.8685V16.9176C19.9094 16.4468 20.2925 16.0637 20.7633 16.0637C21.2352 16.0637 21.6192 16.4467 21.6192 16.9176V17.8684C21.6192 18.9219 22.4762 19.779 23.5297 19.779C24.5821 19.779 25.4383 18.9219 25.4383 17.8684V14.5161C25.4383 14.469 25.4364 14.42 25.4324 14.3695C28.214 15.3776 29.9007 16.9509 29.916 18.5813C28.3545 19.0361 27.2099 20.4793 27.2099 22.1856C27.2099 22.5186 27.2538 22.843 27.3379 23.1571H8.39911C7.28705 21.9314 6.75998 20.6876 6.50116 20.0765C6.44316 19.9395 6.39731 19.8313 6.35548 19.7454C5.72449 18.4421 6.30675 17.3384 6.9063 16.6418C7.09629 16.4211 7.0714 16.0881 6.85069 15.8982C6.62998 15.708 6.29698 15.7329 6.10699 15.9537C5.40035 16.7746 5.0367 17.6675 5.0265 18.5662C4.44417 18.65 3.90923 18.9253 3.52723 19.353C3.15795 19.7665 2.96803 20.2757 2.97373 20.8195C2.2192 21.1998 1.72202 21.9807 1.72202 22.8493C1.72202 22.9533 1.72955 23.0558 1.74319 23.1571H0.981703C0.440437 23.1571 0 23.5967 0 24.137V25.6218C0 26.9809 1.10566 28.0865 2.46466 28.0865H2.78437V28.8508C2.78437 29.8538 3.60028 30.6697 4.60329 30.6697H31.3968C32.3997 30.6697 33.2157 29.8538 33.2157 28.8508V28.0865H33.5334C34.8936 28.0865 36.0001 26.9809 36.0001 25.6218V24.137C36 23.5967 35.5596 23.1571 35.0182 23.1571ZM24.3838 17.8685C24.3838 18.3404 24.0008 18.7244 23.5299 18.7244C23.058 18.7244 22.6741 18.3404 22.6741 17.8685V16.9176C22.6741 15.8652 21.817 15.009 20.7635 15.009C19.7111 15.009 18.8549 15.8652 18.8549 16.9176V17.8684C18.8549 18.3403 18.471 18.7243 17.9991 18.7243C17.5283 18.7243 17.1452 18.3403 17.1452 17.8684V16.2141C17.1452 15.1616 16.2882 14.3054 15.2346 14.3054C14.1811 14.3054 13.3241 15.1616 13.3241 16.2141V19.2755C13.3241 19.7464 12.941 20.1295 12.4702 20.1295C11.9983 20.1295 11.6144 19.7464 11.6144 19.2755V14.5159C11.6144 14.5116 11.6143 14.5074 11.6142 14.503C11.6042 14.0942 11.8841 13.7163 12.4459 13.3798C13.6174 12.6782 15.7399 12.328 17.8834 12.328C20.0417 12.328 22.2212 12.6832 23.4716 13.3923C24.0772 13.7357 24.3842 14.1136 24.3839 14.5158V17.8685H24.3838ZM28.6646 14.8483C28.7743 14.1789 29.0251 13.5587 29.4122 13.0009C30.1307 11.9661 31.246 11.2803 32.5515 11.0696C32.791 12.2618 32.5954 13.444 32.0025 14.4322C31.6319 14.424 31.2591 14.4521 30.8881 14.5191C30.2505 14.6346 29.6487 14.8571 29.0926 15.1786C28.9566 15.0661 28.8138 14.9559 28.6646 14.8483ZM29.8871 15.9488C30.2619 15.7645 30.6594 15.6324 31.0759 15.557C32.3167 15.333 33.5885 15.6369 34.6597 16.414C33.9268 17.5132 32.8404 18.2416 31.5941 18.4666C31.5762 18.47 31.5583 18.4725 31.5404 18.4755C31.3535 18.4466 31.1623 18.4315 30.9675 18.4314C30.926 17.5688 30.5598 16.7269 29.8871 15.9488ZM30.4992 19.527C30.5068 19.5258 30.5145 19.5245 30.5221 19.5229C30.666 19.4991 30.8136 19.4861 30.9642 19.4861C32.4527 19.4861 33.6637 20.6971 33.6637 22.1857C33.6637 22.5243 33.6035 22.8498 33.485 23.1571H28.4453C28.3257 22.8484 28.2648 22.5229 28.2648 22.1857C28.2647 20.8557 29.2316 19.7481 30.4992 19.527ZM3.67678 21.6741C3.94516 21.6014 4.11103 21.3328 4.05577 21.0603C3.95796 20.5782 4.14218 20.2478 4.31388 20.0556C4.52588 19.8183 4.83764 19.6612 5.17542 19.6111C5.23484 19.8108 5.31148 20.0094 5.40682 20.2063C5.43706 20.2683 5.48009 20.37 5.52994 20.4878C5.7626 21.0373 6.19418 22.0558 7.02956 23.1572H2.81644C2.79021 23.0574 2.77678 22.9546 2.77678 22.8495C2.77671 22.3009 3.14684 21.8176 3.67678 21.6741ZM34.9453 25.6218C34.9453 26.3993 34.3119 27.0319 33.5334 27.0319H19.3184C19.0272 27.0319 18.7911 27.2679 18.7911 27.5592C18.7911 27.8505 19.0272 28.0865 19.3184 28.0865H32.1609V28.8508C32.1609 29.2722 31.8182 29.615 31.3967 29.615H4.60329C4.18191 29.615 3.83906 29.2722 3.83906 28.8508V28.0865H16.8709C17.1622 28.0865 17.3983 27.8505 17.3983 27.5592C17.3983 27.2679 17.1622 27.0319 16.8709 27.0319H2.46466C1.68722 27.0319 1.05469 26.3993 1.05469 25.6218V24.2118H34.9453V25.6218Z" fill="black"/>
</g>
<defs>
<clipPath id="clip0">
<rect width="36" height="36" fill="white"/>
</clipPath>
</defs>
</svg>
