<svg width="36" height="36" viewBox="0 0 36 36" fill="none" xmlns="http://www.w3.org/2000/svg">
<g clip-path="url(#clip0)">
<path fill-rule="evenodd" clip-rule="evenodd" d="M32.6883 30.2233L17.9851 29.3802L3.31171 30.2233V31.5149C3.31171 32.2264 3.89172 32.8064 4.60328 32.8064H31.3968C32.1063 32.8064 32.6883 32.2264 32.6883 31.5149V30.2233H32.6883Z" fill="#BED8FB"/>
<path fill-rule="evenodd" clip-rule="evenodd" d="M32.6883 30.2233H28.9731H28.1261V31.5149C28.1261 32.2265 27.5461 32.8065 26.8345 32.8065H31.3967C32.1062 32.8065 32.6883 32.2265 32.6883 31.5149V30.2233Z" fill="#8EAADF"/>
<path fill-rule="evenodd" clip-rule="evenodd" d="M25.0945 18.0052C24.957 18.0052 24.8215 18.0212 24.6919 18.051C24.6002 18.073 24.5105 18.1029 24.4249 18.1387C24.2216 17.3992 23.5459 16.8551 22.7427 16.8551C22.384 16.8551 22.0511 16.9627 21.7761 17.1481C21.4651 16.6657 20.923 16.3468 20.3072 16.3468C20.0122 16.3468 19.7352 16.4206 19.492 16.5501C18.9 16.869 6.28558 24.7201 7.43358 20.1876C7.37381 20.1797 7.31201 20.1776 7.2502 20.1776C6.84162 20.1776 6.46488 20.3171 6.16795 20.5544C5.77329 20.8254 5.49626 21.252 5.42651 21.7483C5.36871 21.7423 5.30894 21.7383 5.24911 21.7383C4.28442 21.7383 3.50311 22.5196 3.50311 23.4823C3.50311 23.6019 3.51506 23.7175 3.53897 23.8291C2.79555 24.0304 2.24944 24.7081 2.24944 25.5133C2.24944 25.8163 2.3272 26.0993 2.46269 26.3464L19.2926 27.6121L33.5374 26.3464C33.6709 26.0993 33.7487 25.8163 33.7487 25.5133C33.7487 24.7081 33.2025 24.0304 32.4611 23.8291C32.483 23.7175 32.495 23.6019 32.495 23.4823C32.495 22.8605 32.1681 22.3143 31.6778 22.0054C31.4087 21.836 31.0918 21.7383 30.751 21.7383C30.6892 21.7383 30.6295 21.7423 30.5717 21.7483C30.5019 21.2519 30.2249 20.8254 29.8322 20.5544C29.5631 20.3411 29.2323 20.2056 28.8695 20.1816C28.8297 20.1776 28.7898 20.1776 28.7499 20.1776C28.5806 20.1776 28.4171 20.2015 28.2636 20.2454C28.0344 19.5917 27.4285 19.1133 26.705 19.0774C26.4419 18.4477 25.82 18.0052 25.0945 18.0052Z" fill="#FFD772"/>
<path fill-rule="evenodd" clip-rule="evenodd" d="M15.4199 15.9263C15.2943 17.3315 11.6509 18.8443 9.49436 17.7979C8.51379 18.3759 7.76637 19.0934 7.49524 19.9684C7.4733 20.0422 7.45137 20.1159 7.43344 20.1876C7.07266 21.6148 7.68656 22.4519 8.78477 22.3482C9.58802 22.2725 10.8417 21.8459 11.9419 23.0578C13.2673 24.5129 16.5081 24.3016 17.5963 22.7867C18.2062 21.9377 18.5291 21.0348 19.2965 19.5578C19.9303 18.336 20.0459 17.2457 19.4918 16.5501C19.0075 15.9422 18.011 15.6332 16.4005 15.8006C16.1016 15.8326 15.7707 15.8745 15.4199 15.9263Z" fill="#F9F7F8"/>
<path fill-rule="evenodd" clip-rule="evenodd" d="M15.2605 15.8524C13.7118 15.3083 10.6484 15.5296 9.61995 17.5406C9.57009 17.6403 9.52629 17.72 9.49437 17.7978C9.40669 18.001 9.3967 18.1824 9.54021 18.6867C9.78933 19.5497 11.1726 20.3152 12.3166 19.6036C12.8628 19.2648 13.1777 18.5413 14.4692 18.4974C16.9526 18.4157 16.9267 16.6876 15.4199 15.9262C15.3681 15.9003 15.3143 15.8763 15.2605 15.8524Z" fill="#FFD772"/>
<path fill-rule="evenodd" clip-rule="evenodd" d="M26.0412 14.0706C25.1204 15.1828 24.6101 16.5799 24.6919 18.051C25.2599 19.1911 25.8858 19.506 26.4697 19.9385C27.4623 19.9903 27.6675 20.4388 28.2476 20.4388C28.2874 20.4388 28.8295 20.1776 28.8694 20.1816C29.001 19.7611 29.0867 19.3226 29.1165 18.8761C29.1385 18.5472 29.1305 18.2104 29.0906 17.8735C28.9072 16.283 28.0581 14.9176 26.8244 13.9788C26.4419 13.6879 26.3481 13.6998 26.0412 14.0706Z" fill="#A7E9A6"/>
<path fill-rule="evenodd" clip-rule="evenodd" d="M33.8821 18.1546C32.5368 17.7101 31.0679 17.7759 29.7723 18.4615C29.5411 18.5831 29.3219 18.7226 29.1166 18.8761C28.6342 19.2528 27.8948 20.5503 28.2476 21.0466C28.6103 21.0705 29.2441 21.6007 29.5132 21.812C29.549 21.8379 30.5376 22.0053 30.715 22.0053C31.0558 22.0053 31.4087 21.8359 31.6777 22.0053C32.9593 21.3177 33.8323 20.1477 34.2189 18.7923C34.3406 18.3699 34.2987 18.2921 33.8821 18.1546Z" fill="#4FC9AF"/>
<path fill-rule="evenodd" clip-rule="evenodd" d="M33.5373 26.3466H2.46262H0.981773C0.730617 26.3466 0.527344 26.5519 0.527344 26.801V28.2859C0.527344 29.3502 1.3983 30.2233 2.46466 30.2233H3.31172H32.6883H33.5334C34.5997 30.2233 35.4727 29.3503 35.4727 28.2859V26.801C35.4727 26.5519 35.2673 26.3466 35.0182 26.3466H33.5373Z" fill="#F9F7F8"/>
<path fill-rule="evenodd" clip-rule="evenodd" d="M28.2636 20.2456C28.0344 19.5918 27.4285 19.1135 26.705 19.0775C26.4419 18.4477 25.82 18.0052 25.0945 18.0052C24.957 18.0052 24.8215 18.0212 24.6919 18.051C24.6002 18.073 24.5105 18.1029 24.4249 18.1387C24.2216 17.3993 23.5459 16.8551 22.7427 16.8551C22.6869 16.8551 22.6311 16.8591 22.5773 16.863C23.4423 18.3878 23.9306 20.1199 23.9306 21.9556C23.9306 23.5162 23.5778 25.0011 22.942 26.3465H33.5374C33.6709 26.0994 33.7487 25.8163 33.7487 25.5134C33.7487 24.7082 33.2025 24.0305 32.4611 23.8292C32.483 23.7176 32.495 23.6019 32.495 23.4824C32.495 22.8606 32.1681 22.3144 31.6778 22.0055C31.4087 21.836 31.0918 21.7384 30.751 21.7384C30.6892 21.7384 30.6295 21.7424 30.5717 21.7484C30.5019 21.252 30.2249 20.8255 29.8322 20.5544C29.5631 20.3412 29.2323 20.2056 28.8695 20.1817C28.8297 20.1777 28.7898 20.1777 28.7499 20.1777C28.5805 20.1778 28.417 20.2017 28.2636 20.2456Z" fill="#FBBA58"/>
<path fill-rule="evenodd" clip-rule="evenodd" d="M29.0907 17.8737C28.9073 16.2831 28.0582 14.9178 26.8245 13.979C26.4418 13.688 26.3481 13.6999 26.0412 14.0707C25.9197 14.2162 25.806 14.3677 25.6984 14.5231C26.7647 15.446 27.4902 16.7137 27.6576 18.1667C27.6955 18.5055 27.7035 18.8403 27.6815 19.1693C27.6756 19.255 27.6676 19.3387 27.6596 19.4224C27.9347 19.6277 28.1479 19.9147 28.2635 20.2455C28.417 20.2017 28.5804 20.1777 28.7499 20.1777C28.7897 20.1777 28.8296 20.1777 28.8695 20.1818C29.001 19.7612 29.0867 19.3227 29.1166 18.8762C29.1386 18.5474 29.1305 18.2105 29.0907 17.8737Z" fill="#7FDBAE"/>
<path fill-rule="evenodd" clip-rule="evenodd" d="M34.219 18.7925C34.3405 18.3699 34.2987 18.2922 33.8821 18.1547C33.621 18.069 33.356 18.0012 33.0888 17.9534C33.1168 18.041 33.0948 18.1607 33.041 18.35C32.6583 19.6934 31.7953 20.8574 30.5297 21.5451C30.5476 21.6108 30.5616 21.6786 30.5715 21.7483C30.6293 21.7424 30.6891 21.7383 30.7509 21.7383C31.0917 21.7383 31.4086 21.836 31.6777 22.0055C32.9593 21.3178 33.8323 20.1478 34.219 18.7925Z" fill="#26BB9E"/>
<path fill-rule="evenodd" clip-rule="evenodd" d="M14.804 18.4755C16.9486 18.2542 16.855 16.6518 15.4199 15.9263C15.3681 15.9003 15.3143 15.8764 15.2604 15.8525C13.8991 15.3742 11.3678 15.4877 10.0783 16.885C11.306 16.4803 12.7232 16.5382 13.624 16.8551C13.6799 16.879 13.7336 16.9029 13.7855 16.9289C14.541 17.3116 14.9256 17.9374 14.804 18.4755Z" fill="#FBBA58"/>
<path fill-rule="evenodd" clip-rule="evenodd" d="M17.5964 22.7868C18.2063 21.9377 18.5292 21.0348 19.2966 19.5579C19.9304 18.336 20.046 17.2458 19.4919 16.5502C19.1311 16.0977 18.4873 15.8107 17.5167 15.7629C17.5825 15.8226 17.6423 15.8865 17.6961 15.9542C18.0011 16.3369 18.1027 16.8372 18.029 17.4112C17.9692 17.8856 17.7878 18.4098 17.5008 18.9619C16.7354 20.4388 16.4105 21.3418 15.8006 22.1909C15.1429 23.1057 13.7019 23.5442 12.3725 23.4306C13.8672 24.461 16.6118 24.1561 17.5964 22.7868Z" fill="#E5E4ED"/>
<path fill-rule="evenodd" clip-rule="evenodd" d="M35.4727 26.801C35.4727 26.5519 35.2673 26.3466 35.0182 26.3466H33.5374H30.456C30.7072 26.3466 30.9104 26.5519 30.9104 26.801V28.2859C30.9104 29.3502 30.0395 30.2233 28.9731 30.2233H32.6883H33.5334C34.5997 30.2233 35.4727 29.3503 35.4727 28.2859V26.801Z" fill="#E5E4ED"/>
<path d="M16.5064 11.1983C16.5298 11.5266 16.8585 11.757 17.1752 11.6682C17.3223 11.6269 17.4466 11.5209 17.5109 11.3824C17.5864 11.2198 17.5526 11.0441 17.5332 10.873C17.4375 10.0262 17.2772 8.60906 19.2904 7.93744C20.5615 7.51219 21.3976 6.58933 21.7083 5.26872C21.934 4.30931 21.7955 3.47301 21.7895 3.43793C21.7405 3.15154 21.4691 2.95903 21.1826 3.00754C20.896 3.05564 20.7024 3.32732 20.7496 3.61406C20.767 3.71946 21.1492 6.20339 18.9562 6.93717C16.1333 7.87887 16.3889 10.1403 16.4852 10.9915C16.4945 11.0737 16.5025 11.1446 16.5064 11.1983Z" fill="black"/>
<path d="M21.4734 8.39822C19.5959 9.02491 19.7743 10.576 19.8328 11.0857C19.8524 11.2558 19.8717 11.4088 19.9996 11.5354C20.1124 11.647 20.2724 11.7026 20.4301 11.6848C20.5867 11.6671 20.7295 11.578 20.8147 11.4456C20.9115 11.2948 20.9002 11.1355 20.8806 10.9653C20.8073 10.3272 20.8229 9.72733 21.8079 9.39855C23.4272 8.85616 23.5991 7.22182 23.4636 6.43341C23.4146 6.14751 23.1439 5.95598 22.8576 6.00394C22.5714 6.05154 22.3776 6.3228 22.4237 6.60926C22.4467 6.75199 22.6152 8.01572 21.4734 8.39822Z" fill="black"/>
<path d="M12.5501 11.2003C12.5737 11.5132 12.8762 11.7408 13.1835 11.6768C13.3275 11.6468 13.4544 11.5561 13.5295 11.4297C13.6171 11.2823 13.6046 11.1284 13.5858 10.9651C13.5124 10.327 13.5281 9.72711 14.5131 9.39832C16.1324 8.85593 16.3042 7.22159 16.1688 6.43318C16.1195 6.14616 15.8473 5.95329 15.5598 6.00272C15.2728 6.05201 15.0801 6.32461 15.1294 6.6117C15.1391 6.66837 15.3542 8.00431 14.1786 8.39806C12.301 9.02475 12.4794 10.5758 12.538 11.0855C12.5431 11.1293 12.5477 11.1678 12.5501 11.2003Z" fill="black"/>
<path d="M35.0182 25.8192H34.2551C34.269 25.718 34.2759 25.6157 34.2759 25.5134C34.2759 24.6437 33.7779 23.8617 33.0223 23.482C33.0222 22.956 32.842 22.4714 32.5406 22.0859C33.5883 21.3355 34.3541 20.2408 34.7257 18.9382C34.9263 18.2414 34.7361 17.8812 34.0475 17.6539C32.5459 17.1577 30.9812 17.2628 29.6282 17.9444C29.624 17.9006 29.6197 17.8569 29.6145 17.8131C29.4211 16.1351 28.5436 14.6244 27.1436 13.5591C26.5336 13.0952 26.1248 13.1427 25.635 13.7342C24.8692 14.6591 24.3852 15.7456 24.2201 16.8779C23.8178 16.5328 23.2982 16.3277 22.7425 16.3277C22.4554 16.3277 22.1751 16.3808 21.9137 16.4834C21.4921 16.0614 20.9186 15.8195 20.3069 15.8195C20.074 15.8195 19.842 15.8558 19.6209 15.9261C18.9397 15.3394 17.8414 15.1209 16.3444 15.2763C16.0733 15.3053 15.79 15.3407 15.5001 15.3818C15.4786 15.3724 15.4572 15.3628 15.4351 15.355C14.5097 15.0298 13.2441 14.9793 12.132 15.2233C10.7378 15.5291 9.67894 16.2669 9.15033 17.3006C9.12853 17.3429 9.10737 17.3856 9.08606 17.4281C8.03728 18.0742 7.35124 18.8237 7.04313 19.6598C6.61001 19.6994 6.19439 19.8631 5.85352 20.1305C5.46602 20.4014 5.17465 20.7853 5.01645 21.2228C3.87176 21.3395 2.97555 22.3082 2.97555 23.4823V23.4827C2.21991 23.8624 1.72188 24.644 1.72188 25.5134C1.72188 25.6158 1.72891 25.718 1.74277 25.8192H0.981773C0.440438 25.8192 0 26.2597 0 26.8011V28.2859C0 29.645 1.10566 30.7507 2.46466 30.7507H2.78437V31.5149C2.78437 32.5179 3.60028 33.3338 4.60329 33.3338H31.3968C32.3997 33.3338 33.2157 32.5179 33.2157 31.5149V30.7507H33.5334C34.8936 30.7507 36.0001 29.645 36.0001 28.2859V26.8011C36 26.2597 35.5596 25.8192 35.0182 25.8192ZM29.6201 19.1665C29.7495 19.0797 29.8827 18.9994 30.019 18.9277C31.1378 18.3357 32.4484 18.2381 33.7103 18.6533C33.3737 19.8286 32.6521 20.7949 31.665 21.4036C31.4521 21.3097 31.2224 21.247 30.9814 21.2227C30.8235 20.786 30.5331 20.4023 30.1469 20.131C29.9576 19.9825 29.7451 19.8663 29.5194 19.7852C29.5638 19.5801 29.5973 19.3738 29.6201 19.1665ZM26.4474 14.407C26.4569 14.3956 26.4658 14.385 26.474 14.3752C26.4837 14.3825 26.4941 14.3903 26.5051 14.3987C27.6743 15.2884 28.4065 16.544 28.5669 17.9352C28.6301 18.4735 28.6047 19.0111 28.4931 19.5396C28.1576 19.0458 27.6408 18.7023 27.0482 18.5889C26.6638 17.9403 25.981 17.5233 25.219 17.482C25.2785 16.3797 25.7044 15.3045 26.4474 14.407ZM10.0439 17.8715C10.0588 17.8421 10.0745 17.8111 10.091 17.7779C10.9953 16.0153 13.7992 15.9081 15.0685 16.3441C15.6975 16.6205 15.9809 17.0653 15.9278 17.3464C15.8775 17.6133 15.4606 17.9368 14.4513 17.9705C13.3189 18.0089 12.7773 18.5076 12.3819 18.8717C12.2554 18.9882 12.1461 19.0889 12.0381 19.1559C11.5448 19.4626 11.0609 19.3508 10.8164 19.257C10.4379 19.1117 10.1287 18.8237 10.047 18.5407C9.92271 18.1097 9.93185 18.0917 10.0439 17.8715ZM3.67678 24.3383C3.94734 24.2651 4.11328 23.993 4.05464 23.7189C4.03854 23.6439 4.03045 23.5643 4.03045 23.4825C4.03045 22.8116 4.57713 22.2658 5.24911 22.2658C5.28539 22.2658 5.32568 22.2681 5.37223 22.2729C5.65509 22.3026 5.9092 22.1028 5.94865 21.8218C5.99583 21.4864 6.18455 21.1828 6.4665 20.9891C6.47691 20.9819 6.4871 20.9744 6.49702 20.9665C6.59243 20.8904 6.69698 20.8302 6.80829 20.7868C6.7763 21.3833 6.91566 21.8933 7.22194 22.2699C7.59037 22.7227 8.16307 22.9369 8.83441 22.8733C8.96836 22.8607 9.10547 22.8405 9.25073 22.8191C10.0149 22.7066 10.8051 22.5902 11.5519 23.4126C12.1759 24.0991 13.2019 24.5196 14.3667 24.5665C15.4745 24.6102 16.5526 24.3235 17.3249 23.7775C17.5627 23.6094 17.6193 23.2803 17.4511 23.0425C17.283 22.8047 16.954 22.7481 16.7161 22.9163C15.5917 23.7111 13.3022 23.77 12.3325 22.7035C11.2079 21.4648 9.93762 21.6519 9.09703 21.7757C8.96583 21.795 8.84194 21.8133 8.73506 21.8234C8.41697 21.854 8.18304 21.78 8.04016 21.6043C7.81066 21.3222 7.79569 20.7827 7.9991 20.1246C8.14732 19.6461 8.48777 19.1907 9.01434 18.7648C9.02046 18.7871 9.02693 18.81 9.03361 18.8332C9.20763 19.4361 9.74587 19.9758 10.4383 20.2418C11.1657 20.5211 11.9518 20.4516 12.5947 20.0519C12.787 19.9325 12.9443 19.7877 13.0964 19.6477C13.4447 19.3269 13.7456 19.0498 14.4868 19.0247C16.5388 18.9562 16.9018 17.8726 16.9642 17.5421C17.0442 17.1181 16.9334 16.6873 16.6702 16.3057C17.9109 16.2091 18.778 16.4315 19.1237 16.9391C19.4618 17.4356 19.3541 18.3016 18.8284 19.3153C18.5538 19.8448 18.0139 20.9705 17.9532 21.0955C17.8259 21.3575 17.9351 21.673 18.1971 21.8002C18.459 21.9275 18.7746 21.8183 18.9019 21.5563C18.9634 21.4298 19.4977 20.3156 19.7647 19.8007C20.3456 18.681 20.5114 17.6664 20.2543 16.8754C20.2719 16.8746 20.2894 16.8743 20.3071 16.8743C20.7235 16.8743 21.1069 17.0835 21.3328 17.4339C21.4096 17.553 21.5311 17.6363 21.67 17.6647C21.8088 17.6931 21.9532 17.6647 22.0708 17.5854C22.2678 17.4527 22.5001 17.3825 22.7427 17.3825C23.2888 17.3825 23.7714 17.7509 23.9164 18.2786C23.9565 18.4243 24.0572 18.546 24.1931 18.6124C24.3289 18.6789 24.4867 18.6838 24.6265 18.6261C24.7764 18.564 24.9339 18.5325 25.0945 18.5325C25.5874 18.5325 26.0286 18.8262 26.2184 19.2808C26.2967 19.4684 26.4759 19.5942 26.6789 19.6043C27.1741 19.6288 27.6007 19.949 27.7659 20.4201C27.8583 20.6836 28.14 20.8292 28.4085 20.7526C28.5186 20.7212 28.6335 20.7051 28.7499 20.7051C29.0284 20.7051 29.2889 20.7955 29.5031 20.9665C29.5126 20.9741 29.5225 20.9815 29.5325 20.9885C29.8138 21.1828 30.0022 21.4864 30.0494 21.8219C30.0889 22.1029 30.3438 22.3026 30.6258 22.273C30.6724 22.2682 30.7133 22.2658 30.751 22.2658C31.4218 22.2658 31.9676 22.8117 31.9676 23.4825C31.9676 23.564 31.9595 23.6466 31.9435 23.7278C31.8903 23.9993 32.0559 24.2657 32.3229 24.3383C32.8518 24.4819 33.2213 24.9651 33.2213 25.5136C33.2213 25.618 33.2083 25.7202 33.1826 25.8194H2.81559C2.78972 25.7206 2.77671 25.6184 2.77671 25.5136C2.77671 24.965 3.14684 24.4817 3.67678 24.3383ZM34.9453 28.2859C34.9453 29.0634 34.3119 29.696 33.5334 29.696H19.3463C19.0551 29.696 18.819 29.932 18.819 30.2233C18.819 30.5146 19.0551 30.7507 19.3463 30.7507H32.1609V31.5149C32.1609 31.9363 31.8182 32.2791 31.3967 32.2791H4.60329C4.18191 32.2791 3.83906 31.9363 3.83906 31.5149V30.7507H16.8948C17.1861 30.7507 17.4222 30.5146 17.4222 30.2233C17.4222 29.932 17.1861 29.696 16.8948 29.696H2.46466C1.68722 29.696 1.05469 29.0634 1.05469 28.2859V26.8739H34.9453V28.2859Z" fill="black"/>
<path d="M21.8021 20.5267C21.9608 20.368 22.1721 20.2806 22.3968 20.2806C22.6216 20.2806 22.8329 20.368 22.9916 20.5267C23.0946 20.6297 23.2295 20.6812 23.3645 20.6812C23.4995 20.6812 23.6344 20.6297 23.7374 20.5268C23.9433 20.3209 23.9433 19.9869 23.7374 19.7811C23.3794 19.423 22.9033 19.2259 22.3968 19.2259C21.8903 19.2259 21.4142 19.423 21.0562 19.7811C20.8503 19.987 20.8503 20.3209 21.0562 20.5268C21.2622 20.7327 21.5961 20.7327 21.8021 20.5267Z" fill="black"/>
<path d="M27.7035 24.3567C27.8384 24.3567 27.9734 24.3052 28.0764 24.2022C28.2351 24.0435 28.4463 23.9561 28.6711 23.9561C28.8959 23.9561 29.1071 24.0435 29.2658 24.2022C29.4718 24.4082 29.8057 24.4082 30.0116 24.2023C30.2176 23.9963 30.2176 23.6624 30.0116 23.4566C29.6537 23.0985 29.1776 22.9014 28.671 22.9014C28.1645 22.9014 27.6884 23.0985 27.3305 23.4566C27.1245 23.6625 27.1246 23.9964 27.3305 24.2023C27.4336 24.3052 27.5685 24.3567 27.7035 24.3567Z" fill="black"/>
<path d="M19.691 23.7855C19.7937 23.8883 19.928 23.9395 20.0624 23.9395C20.1974 23.9395 20.3325 23.8877 20.4358 23.7845C20.6417 23.5785 20.6407 23.2437 20.4348 23.0377C20.2288 22.8318 19.8949 22.8318 19.689 23.0377C19.4831 23.2437 19.4831 23.5776 19.689 23.7835L19.691 23.7855Z" fill="black"/>
<path d="M5.88066 24.3317C5.98338 24.4344 6.11768 24.4856 6.25205 24.4856C6.38705 24.4856 6.52219 24.4338 6.62541 24.3306C6.83135 24.1247 6.83037 23.7899 6.62442 23.5838C6.41848 23.378 6.08456 23.378 5.87869 23.5838C5.67274 23.7899 5.67274 24.1237 5.87869 24.3296L5.88066 24.3317Z" fill="black"/>
<path d="M25.5429 22.3065C25.8341 22.3065 26.0703 22.0694 26.0703 21.7781C26.0703 21.4868 25.8341 21.2508 25.5429 21.2508C25.2517 21.2508 25.0156 21.4868 25.0156 21.7781V21.7801C25.0156 22.0715 25.2517 22.3065 25.5429 22.3065Z" fill="black"/>
<path d="M23.0581 23.4136C22.854 23.6213 22.8568 23.9551 23.0645 24.1593L23.0666 24.1613C23.169 24.262 23.3019 24.3121 23.4347 24.3121C23.5713 24.3121 23.7078 24.2592 23.8113 24.1539C24.0154 23.9463 24.0116 23.6114 23.8039 23.4072C23.5962 23.2029 23.2623 23.2058 23.0581 23.4136Z" fill="black"/>
</g>
<defs>
<clipPath id="clip0">
<rect width="36" height="36" fill="white"/>
</clipPath>
</defs>
</svg>
