<svg width="32" height="31" viewBox="0 0 32 31" fill="none" xmlns="http://www.w3.org/2000/svg">
<path d="M30.6939 11.2027L20.7038 10.2761L16.7354 1.06104C16.4575 0.415771 15.5426 0.415771 15.2648 1.06104L11.2964 10.276L1.30618 11.2027C0.60658 11.2675 0.323926 12.1376 0.851758 12.6013L8.38932 19.223L6.18341 29.0107C6.02896 29.696 6.76911 30.2338 7.37313 29.8751L16 24.7526L24.6268 29.8751C25.2309 30.2338 25.971 29.696 25.8166 29.0107L23.6106 19.223L31.1482 12.6013C31.6762 12.1375 31.3935 11.2675 30.6939 11.2027Z" fill="#FFDC64"/>
<path d="M13.7683 4.41203L15.2113 1.06104C15.4892 0.415771 16.404 0.415771 16.6818 1.06104L20.6502 10.276L30.6405 11.2027C31.3401 11.2675 31.6227 12.1376 31.0949 12.6013L23.5573 19.223L25.7632 29.0107C25.9177 29.696 25.1775 30.2338 24.5735 29.8751L23.4253 29.1933C21.543 17.0084 16.2512 8.06391 13.7683 4.41203Z" fill="#FFC850"/>
<path d="M24.249 19.4305L31.529 13.0349C31.9493 12.6659 32.103 12.1061 31.9302 11.5743C31.7574 11.0423 31.3039 10.6797 30.747 10.6282L21.098 9.7332L19.2913 5.53756C19.1652 5.24482 18.8258 5.10953 18.5329 5.23574C18.2402 5.36179 18.1051 5.70131 18.2311 5.99405L20.1734 10.5044C20.257 10.6984 20.4399 10.8313 20.6503 10.8507L30.6404 11.7774C30.7679 11.7892 30.8154 11.8785 30.8323 11.9308C30.8493 11.983 30.8634 12.0832 30.7672 12.1677L23.2296 18.7895C23.0709 18.9289 23.0011 19.1438 23.0476 19.35L25.2535 29.1375C25.2815 29.2624 25.2112 29.3351 25.1668 29.3674C25.1223 29.3997 25.0314 29.4441 24.9215 29.3787L16.2945 24.2564C16.1129 24.1487 15.8867 24.1487 15.7052 24.2564L7.07837 29.3788C6.96848 29.4443 6.87752 29.3997 6.83297 29.3675C6.78856 29.3353 6.71823 29.2625 6.74631 29.1377L7.88509 24.0854C7.9552 23.7744 7.75988 23.4655 7.44899 23.3954C7.13778 23.3254 6.82904 23.5206 6.75901 23.8315L5.62024 28.8839C5.49726 29.4295 5.70204 29.9727 6.15446 30.3013C6.39856 30.4787 6.67959 30.5682 6.96225 30.5681C7.20366 30.5681 7.44622 30.5029 7.66769 30.3714L15.9998 25.4239L24.3321 30.3714C24.813 30.6569 25.3928 30.63 25.8452 30.3013C26.2977 29.9727 26.5024 29.4294 26.3794 28.8838L24.249 19.4305Z" fill="black"/>
<path d="M0.470803 13.0348L7.75087 19.4304L7.27775 21.53C7.20765 21.8409 7.40296 22.1499 7.71393 22.2199C7.75664 22.2295 7.79928 22.2342 7.84129 22.2342C8.10525 22.2342 8.34335 22.0521 8.40383 21.7837L8.95237 19.3498C8.99885 19.1437 8.92897 18.9287 8.77029 18.7893L1.23273 12.1675C1.13661 12.0831 1.15077 11.9829 1.16763 11.9307C1.18463 11.8784 1.23212 11.7891 1.35948 11.7772L11.3496 10.8506C11.5599 10.8311 11.7428 10.6982 11.8264 10.5042L15.7949 1.28938C15.8454 1.17187 15.9452 1.15432 16 1.15432C16.055 1.15432 16.1547 1.17187 16.2053 1.28938L17.2831 3.79217C17.4092 4.08491 17.7487 4.22012 18.0415 4.09399C18.3342 3.96786 18.4694 3.62834 18.3433 3.3356L17.2655 0.832804C17.0442 0.319131 16.5593 0 16 0C15.4407 0 14.9559 0.319054 14.7347 0.832804L10.9018 9.73308L1.25282 10.6281C0.695895 10.6797 0.242555 11.0422 0.0697148 11.5741C-0.103049 12.106 0.0507068 12.6657 0.470803 13.0348Z" fill="black"/>
</svg>
