<svg width="36" height="36" viewBox="0 0 36 36" fill="none" xmlns="http://www.w3.org/2000/svg">
<path fill-rule="evenodd" clip-rule="evenodd" d="M2.14774 17.3731L6.0124 18.5193L9.86911 17.3731C9.92494 16.9864 9.91692 16.5778 9.82728 16.1552C9.74557 15.7605 9.59208 15.3539 9.35688 14.9412C9.17154 14.6163 8.90049 14.2475 8.56763 13.8668C7.02891 12.1007 4.19074 10.0795 2.67994 10.9387C1.19698 11.7838 1.44616 15.1446 2.14774 17.3731Z" fill="#F9F7F8"/>
<path fill-rule="evenodd" clip-rule="evenodd" d="M9.25326 7.59393L12.8189 7.68161L14.0188 7.71149C14.7583 6.68493 14.9197 5.88364 13.5624 5.7381H8.87863V7.28293C8.87856 7.45246 9.04794 7.58795 9.25326 7.59393Z" fill="#FF9F5F"/>
<path fill-rule="evenodd" clip-rule="evenodd" d="M22.6789 7.92888L35.098 8.23987C35.3033 8.24585 35.4726 8.10037 35.4726 7.92888V5.73822H21.7959C21.2239 6.27246 20.9887 7.27111 22.2184 7.9189L22.6789 7.92888Z" fill="#FF9F5F"/>
<path fill-rule="evenodd" clip-rule="evenodd" d="M20.3947 5.73818H21.7959H35.4727V3.54555C35.4727 3.37412 35.3033 3.22858 35.098 3.23455L9.25323 3.88241C9.04792 3.88642 8.87854 4.02191 8.87854 4.19341V5.73818H13.5623H15.6212H16.2789H17.0223H17.68H19.7389H20.3947Z" fill="#FF9F5F"/>
<path fill-rule="evenodd" clip-rule="evenodd" d="M4.35816 17.3732H7.76438C7.89593 16.9268 7.85205 16.4324 7.60294 15.9959C7.11863 15.1448 6.03638 14.8457 5.18327 15.3321C4.45385 15.7467 4.13098 16.6018 4.35816 17.3732Z" fill="#FFD772"/>
<path fill-rule="evenodd" clip-rule="evenodd" d="M13.1159 17.3732C13.1757 17.0164 13.7796 16.9845 14.0288 16.5659C15.3423 14.3633 13.5027 12.8384 13.5365 10.9766C13.5345 10.8112 13.1358 10.6517 13.1578 10.4963C13.0143 10.4165 12.8648 10.3587 12.7053 10.3268C11.2802 10.0418 9.60601 11.9653 8.56764 13.867C8.11517 14.6264 9.20143 17.3732 9.69172 17.3732L11.4826 18.5194L13.1159 17.3732Z" fill="#F9F7F8"/>
<path fill-rule="evenodd" clip-rule="evenodd" d="M8.85456 30.3119L15.39 31.5378L21.9274 30.3119C24.8573 29.082 27.1833 26.674 28.3014 23.6881L15.9341 22.0934L2.48059 23.6881C3.5987 26.6741 5.92464 29.082 8.85456 30.3119Z" fill="#FFDEBA"/>
<path fill-rule="evenodd" clip-rule="evenodd" d="M26.6431 13.7253C25.2599 13.1931 23.6813 13.3286 22.2163 14.0303C21.1739 15.5611 20.6039 16.0336 21.3493 17.3731L24.5243 18.7585L28.9132 17.3731C29.246 15.5153 28.1677 14.4489 27.0137 13.8868C26.8922 13.827 26.7686 13.7732 26.6431 13.7253Z" fill="#FF9F5F"/>
<path fill-rule="evenodd" clip-rule="evenodd" d="M21.9273 30.3119C24.8572 29.082 27.1832 26.6741 28.3013 23.6881H25.495C24.3749 26.6741 22.0509 29.0821 19.121 30.3119H21.9273Z" fill="#FF9F5F"/>
<path fill-rule="evenodd" clip-rule="evenodd" d="M8.5675 13.8668C7.02878 12.1007 4.19062 10.0795 2.67982 10.9387C2.45461 11.0662 2.26927 11.2536 2.11978 11.4849C3.69232 11.128 6.18574 12.9559 7.5929 14.5725C7.92576 14.9512 8.19681 15.32 8.38216 15.6449C8.61538 16.0575 8.7688 16.4642 8.85255 16.8608C8.8884 17.0342 8.91231 17.2056 8.9223 17.3731H9.86905C9.92488 16.9864 9.91686 16.5778 9.82722 16.1552C9.74551 15.7605 9.59202 15.3539 9.35683 14.9412C9.17141 14.6164 8.90036 14.2476 8.5675 13.8668Z" fill="#E5E4ED"/>
<path fill-rule="evenodd" clip-rule="evenodd" d="M13.1277 10.9765C13.1258 10.9586 13.1258 10.9407 13.1258 10.9227C13.1258 10.9407 13.1258 10.9586 13.1277 10.9765ZM13.5622 16.217C14.8756 14.0144 13.0918 12.8403 13.1277 10.9765C13.1257 10.9586 13.1257 10.9407 13.1257 10.9227C13.1257 10.8988 13.1257 10.8749 13.1277 10.849C13.1296 10.7294 13.1416 10.6117 13.1575 10.4961C13.014 10.4164 12.8646 10.3586 12.7051 10.3267C12.4878 10.2828 12.2646 10.2908 12.0394 10.3426C12.0334 10.4324 12.0294 10.5241 12.0314 10.6177C11.9975 12.4456 13.7116 13.6097 12.5396 15.7326C12.9622 16.1432 13.2153 16.7651 13.1156 17.3731C13.1756 17.0163 13.3131 16.6356 13.5622 16.217Z" fill="#E5E4ED"/>
<path fill-rule="evenodd" clip-rule="evenodd" d="M7.60292 15.9958C7.11861 15.1447 6.03636 14.8457 5.18326 15.3321C4.94209 15.4696 4.74275 15.655 4.59531 15.8723C5.36663 15.649 6.21573 15.974 6.62825 16.6995C6.74982 16.9148 6.82358 17.144 6.84945 17.3732H7.76429C7.89592 16.9268 7.85211 16.4324 7.60292 15.9958Z" fill="#FBBA58"/>
<path fill-rule="evenodd" clip-rule="evenodd" d="M28.9133 17.3732C29.2462 15.5154 28.1679 14.449 27.0139 13.8869C26.8923 13.8271 26.7687 13.7732 26.6432 13.7254C26.3263 13.6039 25.9975 13.5161 25.6646 13.4643C26.7688 14.1221 27.7594 15.3281 27.4384 17.3732H28.9133Z" fill="#FF6038"/>
<path fill-rule="evenodd" clip-rule="evenodd" d="M9.86905 17.3732H13.1159C13.2713 16.4323 12.5797 15.4556 11.7227 15.2861C10.8657 15.1147 10.194 15.5054 9.82721 16.1552C9.91693 16.5778 9.92487 16.9864 9.86905 17.3732Z" fill="#FFD772"/>
<path fill-rule="evenodd" clip-rule="evenodd" d="M13.1159 17.3731C13.2155 16.7652 12.9624 16.1432 12.5399 15.7326C12.3087 15.5074 12.0257 15.3459 11.7227 15.2861C11.2364 15.1885 10.8119 15.2722 10.4671 15.4795C10.6305 15.4695 11.94 16.5101 11.9201 17.3731H13.1159Z" fill="#FBBA58"/>
<path fill-rule="evenodd" clip-rule="evenodd" d="M2.48067 23.688H28.3015C28.7718 22.4342 29.0289 21.0788 29.0289 19.6675L16.1314 18.7585L1.75314 19.6675C1.75314 21.0788 2.01028 22.4342 2.48067 23.688Z" fill="#FF9F5F"/>
<path fill-rule="evenodd" clip-rule="evenodd" d="M28.3015 23.688C28.7719 22.4341 29.0289 21.0787 29.0289 19.6674H26.3024H26.2207C26.2207 21.0787 25.9635 22.4341 25.4952 23.688H28.3015Z" fill="#FF6038"/>
<path fill-rule="evenodd" clip-rule="evenodd" d="M9.86908 17.3732H7.76435H4.35813H2.14779H1.67346C1.0436 17.3732 0.527435 17.8895 0.527435 18.5193C0.527435 19.1512 1.04367 19.6675 1.67346 19.6675H1.75319H29.029H29.1087C29.7386 19.6675 30.2547 19.1512 30.2547 18.5193C30.2547 17.8895 29.7385 17.3732 29.1087 17.3732H28.9134H21.3494H19.2905H17.2336H15.1747H13.1158H9.86908Z" fill="#91979E"/>
<path fill-rule="evenodd" clip-rule="evenodd" d="M30.2547 18.5193C30.2547 17.8895 29.7385 17.3732 29.1087 17.3732H28.9134H26.3024C26.9322 17.3732 27.4484 17.8895 27.4484 18.5193C27.4484 19.1512 26.9322 19.6675 26.3024 19.6675H29.0289H29.1087C29.7385 19.6675 30.2547 19.1512 30.2547 18.5193Z" fill="#283342"/>
<path fill-rule="evenodd" clip-rule="evenodd" d="M13.1159 17.3733H15.8305C15.8903 17.0164 16.0278 16.6357 16.279 16.2171C17.5904 14.0145 15.8086 12.8404 15.8425 10.9766C15.8086 9.11491 17.5904 7.93879 16.279 5.73822H13.5624C14.7583 7.74353 13.385 8.89764 13.1578 10.4963C13.1419 10.6119 13.1299 10.7295 13.1279 10.8491C13.126 10.893 13.126 10.9348 13.1279 10.9766C13.0921 12.8404 14.8759 14.0145 13.5625 16.2171C13.3132 16.6357 13.1757 17.0164 13.1159 17.3733Z" fill="#FFD772"/>
<path fill-rule="evenodd" clip-rule="evenodd" d="M16.5759 17.3733H19.9483C20.008 17.0164 20.1456 16.6357 20.3948 16.2171C21.7082 14.0145 19.9264 12.8404 19.9602 10.9766C19.9263 9.11491 21.7082 7.93879 20.3948 5.73822H17.0224C18.3359 7.93886 16.552 9.11491 16.5859 10.9766C16.552 12.8404 18.3359 14.0145 17.0224 16.2171C16.7733 16.6357 16.6358 17.0164 16.5759 17.3733Z" fill="#FFD772"/>
<path fill-rule="evenodd" clip-rule="evenodd" d="M19.2905 17.3731H21.3494C21.4092 17.0163 21.5467 16.6356 21.7959 16.217C22.3022 15.3678 22.348 14.6721 22.2164 14.0303C22.0052 13.0078 21.3395 12.1227 21.3614 10.9766C21.3394 9.83443 22.0032 8.95137 22.2144 7.92882C22.3479 7.28693 22.3041 6.58929 21.7958 5.73816H19.7389C21.0504 7.9388 19.2685 9.11485 19.3024 10.9766C19.2685 12.8404 21.0504 14.0144 19.7389 16.217C19.4879 16.6356 19.3504 17.0163 19.2905 17.3731Z" fill="#FBBA58"/>
<path fill-rule="evenodd" clip-rule="evenodd" d="M15.1748 17.3733H17.2337C17.2915 17.0164 17.431 16.6357 17.6802 16.2171C18.9917 14.0145 17.2098 12.8404 17.2437 10.9766C17.2098 9.11491 18.9917 7.93879 17.6802 5.73822H15.6213C16.9328 7.93886 15.1509 9.11491 15.1848 10.9766C15.1509 12.8404 16.9328 14.0145 15.6213 16.2171C15.3721 16.6357 15.2346 17.0164 15.1748 17.3733Z" fill="#FBBA58"/>
<path fill-rule="evenodd" clip-rule="evenodd" d="M9.15756 32.7657H21.6245C21.7919 32.7657 21.9275 32.6301 21.9275 32.4627V30.3119H8.85458V32.4627C8.85458 32.6301 8.99008 32.7657 9.15756 32.7657Z" fill="#FF9F5F"/>
<path fill-rule="evenodd" clip-rule="evenodd" d="M21.9275 32.4626V30.3118H19.1212V32.4626C19.1212 32.63 18.9836 32.7655 18.8182 32.7655H21.6245C21.7919 32.7656 21.9275 32.63 21.9275 32.4626Z" fill="#FF6038"/>
<path d="M4.60304 21.3038C4.39709 21.5097 4.39709 21.8436 4.60304 22.0495L4.60501 22.0515C4.70773 22.1542 4.84203 22.2054 4.9764 22.2054C5.1114 22.2054 5.24654 22.1537 5.34976 22.0505C5.5557 21.8445 5.55472 21.5096 5.34877 21.3037C5.1429 21.0979 4.80898 21.0979 4.60304 21.3038Z" fill="black"/>
<path d="M8.07505 21.3038C7.86911 21.5097 7.86911 21.8436 8.07505 22.0495L8.07702 22.0515C8.17975 22.1542 8.31404 22.2054 8.44841 22.2054C8.58341 22.2054 8.71855 22.1537 8.82177 22.0505C9.02772 21.8445 9.02673 21.5096 8.82079 21.3037C8.61491 21.0979 8.281 21.0979 8.07505 21.3038Z" fill="black"/>
<path d="M11.5451 21.3038C11.3392 21.5097 11.3392 21.8436 11.5451 22.0495L11.5471 22.0515C11.6498 22.1542 11.7841 22.2054 11.9185 22.2054C12.0535 22.2054 12.1886 22.1537 12.2918 22.0505C12.4978 21.8445 12.4968 21.5096 12.2909 21.3037C12.085 21.0979 11.7511 21.0979 11.5451 21.3038Z" fill="black"/>
<path d="M15.0171 22.0497L15.0191 22.0517C15.1218 22.1544 15.2561 22.2057 15.3905 22.2057C15.5255 22.2057 15.6606 22.1539 15.7639 22.0507C15.9698 21.8448 15.9688 21.5099 15.7629 21.3039C15.5569 21.098 15.223 21.098 15.0171 21.3039C14.8112 21.5099 14.8112 21.8438 15.0171 22.0497Z" fill="black"/>
<path d="M18.4911 22.0517C18.5939 22.1544 18.7282 22.2057 18.8625 22.2057C18.9975 22.2057 19.1327 22.1539 19.2359 22.0507C19.4418 21.8448 19.4409 21.5099 19.2349 21.3039C19.029 21.098 18.6951 21.098 18.4892 21.3039C18.2832 21.5099 18.2832 21.8438 18.4892 22.0497L18.4911 22.0517Z" fill="black"/>
<path d="M21.961 22.0517C22.0638 22.1544 22.198 22.2057 22.3324 22.2057C22.4674 22.2057 22.6026 22.1539 22.7058 22.0507C22.9117 21.8448 22.9107 21.5099 22.7048 21.3039C22.4988 21.098 22.1649 21.098 21.9591 21.3039C21.7531 21.5099 21.7531 21.8438 21.9591 22.0497L21.961 22.0517Z" fill="black"/>
<path d="M25.4332 22.0517C25.536 22.1544 25.6702 22.2057 25.8046 22.2057C25.9396 22.2057 26.0748 22.1539 26.178 22.0507C26.3839 21.8448 26.3829 21.5099 26.177 21.3039C25.971 21.098 25.6371 21.098 25.4313 21.3039C25.2253 21.5099 25.2253 21.8438 25.4313 22.0497L25.4332 22.0517Z" fill="black"/>
<path d="M35.7485 2.96214C35.5744 2.79297 35.3321 2.69981 35.0847 2.70733L9.243 3.35512C8.74294 3.36482 8.35116 3.73298 8.35116 4.19332V7.28292C8.35116 7.7384 8.74069 8.10656 9.24026 8.12104L13.3561 8.22286C13.2852 8.43907 13.1972 8.65872 13.1044 8.89005C12.9897 9.17545 12.8684 9.47906 12.7732 9.80397C11.2153 9.52174 9.59646 11.1614 8.46998 12.9862C7.91402 12.4236 7.26919 11.8765 6.6143 11.4255C5.4057 10.593 3.69675 9.75342 2.41882 10.4805C0.731531 11.4421 0.88418 14.6 1.45519 16.8604C0.635273 16.9679 0 17.6706 0 18.5194C0 19.2913 0.52425 19.9427 1.23497 20.1361C1.32187 22.3854 2.03372 24.5497 3.30715 26.4224C4.56862 28.2775 6.29944 29.7345 8.32718 30.6556V32.4627C8.32718 32.9205 8.69963 33.293 9.1575 33.293H21.6245C22.0823 33.293 22.4548 32.9205 22.4548 32.4627V30.6555C24.4819 29.7344 26.2124 28.2775 27.4741 26.4225C28.748 24.5495 29.4601 22.3852 29.5471 20.1362C30.2577 19.9428 30.782 19.2914 30.782 18.5194C30.782 17.7304 30.233 17.0675 29.4969 16.8919C29.5658 15.3838 28.7821 14.1617 27.2445 13.4128C25.8478 12.7333 24.17 12.7028 22.5611 13.3106C22.4854 13.0901 22.4002 12.8773 22.317 12.6701C22.0912 12.1074 21.8779 11.5758 21.8886 10.9863C21.8888 10.9799 21.8888 10.9735 21.8886 10.9672C21.8779 10.3785 22.0911 9.84715 22.3169 9.28465C22.4234 9.01915 22.5335 8.74451 22.6225 8.45601L35.0826 8.767C35.0916 8.76722 35.1006 8.76736 35.1097 8.76736C35.3491 8.76736 35.5807 8.67518 35.7484 8.51219C35.9106 8.35469 35.9999 8.14748 35.9999 7.92888V3.5456C36 3.32686 35.9106 3.11972 35.7485 2.96214ZM9.40584 7.07022V6.2655H13.2494C13.4112 6.59308 13.4913 6.89008 13.5126 7.17183L9.40584 7.07022ZM12.6012 10.8438C12.6002 10.8878 12.5997 10.9319 12.6004 10.9766C12.5874 11.7764 12.8621 12.4605 13.1044 13.0644C13.4672 13.9682 13.7585 14.6942 13.2289 15.7311C12.8968 15.2468 12.4002 14.8826 11.8261 14.7691C11.1582 14.6356 10.5365 14.7692 10.0415 15.1293C9.97432 14.9784 9.89944 14.8286 9.8152 14.6806C9.65827 14.4048 9.4512 14.1094 9.20714 13.807C10.3331 11.8712 11.7019 10.6642 12.6012 10.8438ZM12.5792 16.8458H10.4304C10.4281 16.6535 10.4119 16.4603 10.3819 16.2672C10.5852 15.9885 10.9672 15.673 11.6204 15.8035C12.0801 15.8944 12.4712 16.352 12.5792 16.8458ZM2.94068 11.397C3.5486 11.0512 4.69821 11.3866 6.01594 12.2942C6.79247 12.829 7.56612 13.5243 8.15189 14.1913C8.16413 14.207 8.17727 14.2221 8.19141 14.2365C8.48503 14.5751 8.72972 14.9054 8.89847 15.2021C9.09548 15.5483 9.23168 15.8956 9.3072 16.2416C9.30888 16.2518 9.31127 16.262 9.31352 16.272C9.35339 16.4638 9.37392 16.6552 9.37631 16.8458H8.36459C8.36051 16.4606 8.25834 16.0805 8.06119 15.735C7.75716 15.2007 7.26349 14.8168 6.67111 14.6539C6.07809 14.4909 5.45681 14.5691 4.92265 14.8736C4.19316 15.2883 3.76495 16.0442 3.75743 16.8459H2.54208C1.91967 14.603 1.92136 11.978 2.94068 11.397ZM7.30905 16.8458H4.81387C4.82231 16.4165 5.05266 16.0128 5.44444 15.7901C5.73413 15.6249 6.07057 15.5825 6.39155 15.6708C6.71238 15.759 6.97978 15.967 7.14487 16.2571C7.24957 16.4406 7.3047 16.6419 7.30905 16.8458ZM21.8164 29.7845H16.5779C16.2867 29.7845 16.0506 30.0206 16.0506 30.3118C16.0506 30.603 16.2867 30.8392 16.5779 30.8392H21.4001V32.2382H9.38194V30.8392H14.3397C14.6309 30.8392 14.867 30.603 14.867 30.3118C14.867 30.0206 14.6309 29.7845 14.3397 29.7845H8.96562C6.3798 28.672 4.37934 26.6646 3.26559 24.2154H27.5162C26.4023 26.6641 24.402 28.6716 21.8164 29.7845ZM22.2488 16.4871C22.7309 15.6786 22.8499 14.979 22.7962 14.3509C22.9579 14.2849 23.1198 14.2256 23.2815 14.1749C23.9477 14.4509 24.271 14.6845 24.4434 15.3741C24.5033 15.6138 24.7183 15.7737 24.9546 15.7737C24.9969 15.7737 25.04 15.7686 25.0829 15.7578C25.3655 15.6872 25.5373 15.4008 25.4667 15.1183C25.3338 14.5866 25.1189 14.2107 24.8473 13.9266C25.5274 13.9256 26.1825 14.0687 26.7831 14.3609C27.9366 14.9228 28.4932 15.7575 28.4435 16.8458H22.0613C22.114 16.7285 22.1761 16.6092 22.2488 16.4871ZM29.1086 17.9005C29.4498 17.9005 29.7273 18.1781 29.7273 18.5194C29.7273 18.8617 29.4498 19.1402 29.1086 19.1402H16.6417C16.3505 19.1402 16.1144 19.3763 16.1144 19.6676C16.1144 19.9588 16.3505 20.1949 16.6417 20.1949H28.4875C28.4387 21.2197 28.2485 22.2157 27.9319 23.1608H2.85005C2.53343 22.2157 2.3433 21.2198 2.29451 20.1949H14.3655C14.6568 20.1949 14.8929 19.9588 14.8929 19.6676C14.8929 19.3763 14.6568 19.1402 14.3655 19.1402H1.67337C1.33221 19.1402 1.05469 18.8617 1.05469 18.5194C1.05469 18.1781 1.33221 17.9005 1.67337 17.9005H29.1086ZM14.3911 6.2655H15.308C15.8081 7.27954 15.5201 7.99877 15.1618 8.89097C14.9195 9.49446 14.645 10.1781 14.6573 10.9766C14.645 11.776 14.9195 12.4598 15.162 13.0635C15.5497 14.0293 15.856 14.792 15.168 15.9473C14.9867 16.252 14.8525 16.549 14.7606 16.8458H13.8275C13.8803 16.7285 13.9425 16.6092 14.0152 16.4871C14.9712 14.8839 14.4994 13.7085 14.0832 12.6715C13.8572 12.1084 13.6436 11.5765 13.655 10.9868C13.6552 10.98 13.6552 10.9732 13.655 10.9665C13.6437 10.3776 13.8571 9.84588 14.083 9.2831C14.4271 8.42599 14.8083 7.4741 14.3911 6.2655ZM16.4495 6.2655H17.3669C17.867 7.27954 17.579 7.99884 17.2208 8.89097C16.9785 9.49446 16.704 10.1781 16.7162 10.9766C16.704 11.776 16.9785 12.4598 17.2209 13.0635C17.6086 14.0293 17.9149 14.792 17.2269 15.9474C17.0444 16.2542 16.9099 16.5511 16.8186 16.8458H15.8865C15.9394 16.7284 16.0016 16.6091 16.0744 16.4868C17.0292 14.8833 16.5572 13.7078 16.1408 12.6706C15.9148 12.1077 15.7013 11.5759 15.712 10.9862C15.7122 10.9798 15.7122 10.9734 15.712 10.9671C15.7013 10.3782 15.9147 9.84672 16.1407 9.28401C16.4848 8.42662 16.8661 7.47452 16.4495 6.2655ZM18.5084 6.2655H19.4258C19.9259 7.27954 19.6379 7.99877 19.2796 8.89097C19.0373 9.49446 18.7628 10.1781 18.7751 10.9766C18.7628 11.776 19.0373 12.4598 19.2798 13.0635C19.6675 14.0293 19.9737 14.792 19.2868 15.9458C19.104 16.2504 18.969 16.5479 18.8764 16.8458H17.9449C17.9977 16.729 18.06 16.6097 18.1332 16.4868C19.0879 14.8833 18.616 13.7077 18.1996 12.6706C17.9736 12.1077 17.7602 11.5759 17.7709 10.9862C17.771 10.9798 17.771 10.9734 17.7709 10.9671C17.7602 10.3782 17.9736 9.84672 18.1995 9.28401C18.5437 8.42662 18.925 7.47452 18.5084 6.2655ZM20.5672 6.2655H21.4829C21.9842 7.27997 21.6963 7.99933 21.3381 8.89174C21.096 9.49502 20.8217 10.1785 20.8339 10.9766C20.8217 11.7757 21.0961 12.4593 21.3382 13.0628C21.7258 14.0286 22.0319 14.7915 21.3427 15.9474C21.1614 16.252 21.0272 16.549 20.9353 16.8458H20.0029C20.0561 16.7284 20.1187 16.6091 20.1921 16.4868C21.1469 14.8833 20.6749 13.7078 20.2585 12.6706C20.0325 12.1077 19.8191 11.5759 19.8297 10.9862C19.8299 10.9798 19.8299 10.9734 19.8297 10.9671C19.8191 10.3782 20.0325 9.84672 20.2584 9.28401C20.6026 8.42662 20.9839 7.47452 20.5672 6.2655ZM34.9453 7.70845L22.8068 7.40554C22.8156 7.05061 22.7653 6.67261 22.6247 6.2655H34.9453V7.70845ZM34.9453 5.21081H9.40584V4.40608L34.9453 3.76589V5.21081Z" fill="black"/>
</svg>
